<svg width="360" height="360" version="1.1" xmlns="http://www.w3.org/2000/svg" desc="Created with imagetracer.js version 1.2.6" ><path fill="rgb(0,0,0)" stroke="rgb(0,0,0)" stroke-width="1" opacity="0" d="M 0 0 L 357.5 0 L 360 1 L 360 356.5 L 359 358.5 L 359.5 360 L 2.5 360 Q 3.1 357.3 0 358 L 0 0 Z M 127 35 L 120 44 L 106 96 L 92 96 L 91 97 L 89 96 L 87 97 L 85 97 L 81 99 L 76 104 L 73 113 L 67 151 L 60 182 L 60 187 L 45 252 L 45 260 L 59 270 L 62 275 L 70 281 L 83 286 L 243 324 L 254 324 L 266 319 L 275 308 L 284 273 L 290 272 Q 294 268 296 262 L 308 214 L 307 209 L 302 205 L 315 158 L 314 142 L 308 131 Q 303 122 291 120 L 299 111 L 298 105 L 254 60 Q 251 61 252 58 L 251 58 L 236 43 L 230 44 L 225 50 L 222 51 L 222 53 L 217 59 Q 218 61 215 60 L 213 64 Q 214 66 211 65 L 208 71 L 206 62 L 202 57 L 152 39 L 133 35 L 127 35 Z M 50 266 L 50 268 L 53 268 L 50 266 Z " /><path fill="rgb(125,181,188)" stroke="rgb(125,181,188)" stroke-width="1" opacity="0.9921568627450981" d="M 127.5 36 Q 133.6 35.3 136 37 Q 137.1 39.7 134.5 39 L 136 41.5 L 137 48 L 146 50.5 L 144.5 51 Q 140.5 48 132.5 49 L 131 51.5 L 132.5 51 L 151.5 55 L 171 62 L 171.5 64 L 173 63.5 L 172 69.5 L 174 74 L 171.5 73 Q 170 76.5 168.5 74 Q 165.9 73.3 167 76 L 164.5 76 L 162.5 78 L 153.5 81 L 148.5 85 Q 141.7 84.7 139.5 89 L 136 89 Q 137.5 92.7 134.5 92 Q 133 89.5 127.5 91 L 125 92 L 126.5 89 Q 129.5 89.9 128 85.5 L 127 85.5 L 125.5 88 L 125 86.5 L 129 70.5 L 132.5 66 L 136.5 66 L 140.5 68 L 145 64.5 L 144.5 63 L 136.5 65 L 134 64 L 134 60 L 132.5 60 L 131 57.5 L 132 55.5 L 130.5 56 L 127.5 57 L 126 56.5 L 127 60.5 L 126 60.5 L 125 56.5 L 129 48.5 L 129 39 L 125.5 38 Q 122.7 39.3 125 40.5 L 123 47.5 L 123 49.5 L 116 70.5 L 116 74.5 L 113 79.5 L 114 81.5 L 112 85.5 L 110 97.5 L 106.5 105 Q 103.5 105.9 105 101.5 L 107 97.5 L 106 95.5 L 110 86.5 L 110 84.5 L 113 76.5 L 112 74.5 L 116 65.5 L 115 63.5 Q 120.5 56.5 121 44.5 L 125.5 37 L 127.5 36 Z M 152 61 L 150 63 Q 157 63 159 68 L 161 68 L 152 61 Z M 133 67 L 133 68 L 136 68 L 133 67 Z M 165 68 L 165 69 L 167 69 L 165 68 Z " /><path fill="rgb(125,181,188)" stroke="rgb(125,181,188)" stroke-width="1" opacity="0.9921568627450981" d="M 231.5 44 L 236 45 L 237.5 48 L 240 49.5 L 241.5 52 L 268 76.5 L 270.5 80 Q 272.8 79.3 272 81.5 L 288 96.5 Q 287.3 98.8 289.5 98 L 291.5 101 Q 288.5 100.1 290 104.5 L 293.5 109 Q 297.9 107.5 297 110.5 L 286 125 L 282 127.5 L 280.5 130 L 278 131.5 Q 278.8 134.1 275.5 133 L 271.5 136 L 269 135.5 L 270 132 L 274 129.5 L 274 127.5 L 279.5 121 Q 281.8 121.8 281 119.5 L 288 111.5 L 288 103.5 L 287 99.5 L 281.5 93 Q 279.3 93.8 280 91.5 L 244 57.5 L 239.5 52 L 232.5 46 L 231 46.5 L 231.5 44 Z " /><path fill="rgb(125,181,188)" stroke="rgb(125,181,188)" stroke-width="1" opacity="0.9921568627450981" d="M 229.5 45 L 230 47 L 227 48.5 L 228.5 49 L 231.5 48 Q 237.1 52 238 60 L 232.5 56 L 228.5 56 L 227 56.5 L 226.5 50 L 225 50.5 L 229.5 45 Z " /><path fill="rgb(125,181,188)" stroke="rgb(125,181,188)" stroke-width="1" opacity="0.9921568627450981" d="M 147.5 51 L 153 52.5 L 150.5 53 L 147.5 52 L 147.5 51 Z " /><path fill="rgb(125,181,188)" stroke="rgb(125,181,188)" stroke-width="1" opacity="0.9921568627450981" d="M 223.5 52 L 225 52.5 L 222 54 L 221.5 56 L 221 54.5 L 223.5 52 Z " /><path fill="rgb(125,181,188)" stroke="rgb(125,181,188)" stroke-width="1" opacity="0.9921568627450981" d="M 173 53 L 182.5 54 L 186.5 56 L 187 54 L 197 56.5 L 188.5 57 L 178.5 61 L 161 55.5 L 163.5 55 L 170.5 57 L 173 56 L 173 53 Z " /><path fill="rgb(125,181,188)" stroke="rgb(125,181,188)" stroke-width="1" opacity="0.9921568627450981" d="M 219.5 57 L 220 59 L 218 58.5 L 219.5 57 Z " /><path fill="rgb(125,181,188)" stroke="rgb(125,181,188)" stroke-width="1" opacity="0.9921568627450981" d="M 203.5 59 L 204.5 61 L 203.5 59 Z " /><path fill="rgb(125,181,188)" stroke="rgb(125,181,188)" stroke-width="1" opacity="0.9921568627450981" d="M 124.5 60 L 126 64.5 L 123.5 70 L 122 66.5 L 123.5 63 L 124.5 65 L 125 62.5 L 124.5 60 Z " /><path fill="rgb(125,181,188)" stroke="rgb(125,181,188)" stroke-width="1" opacity="0.9921568627450981" d="M 217.5 60 L 213.5 65 L 217.5 60 Z " /><path fill="rgb(125,181,188)" stroke="rgb(125,181,188)" stroke-width="1" opacity="0.9921568627450981" d="M 127.5 64 L 129 66.5 L 128 66.5 L 127.5 64 Z " /><path fill="rgb(125,181,188)" stroke="rgb(125,181,188)" stroke-width="1" opacity="0.9921568627450981" d="M 190.5 67 Q 198 65.5 201 68.5 L 201 70.5 Q 200.3 72.8 202.5 72 L 204 72.5 L 202 69.5 L 204.5 71 L 206 71.5 L 204 75.5 L 208 76 L 211.5 81 L 215 82 Q 217.1 87.2 212.5 86 Q 211.3 82.8 205.5 84 L 206.5 86 L 208 85.5 L 207.5 87 L 210.5 89 Q 211.7 86.8 213 89.5 L 215.5 94 L 217.5 95 L 218 93.5 Q 214.8 91.5 215 87 L 218 87 Q 216.8 90 220.5 89 L 223 94.5 L 219 96.5 L 231 107.5 L 225.5 103 L 197.5 79 L 191.5 78 L 186 81.5 L 182 88 Q 179.3 86.9 180 89.5 L 159.5 113 L 160 111.5 L 161 108 Q 163.7 109.1 163 106.5 L 173 94.5 L 172.5 93 Q 174.3 95.7 176 91.5 L 180.5 85 L 182 85 Q 180.5 81.3 183.5 82 L 186 81 Q 187.5 77.3 184.5 78 L 184.5 80 L 181.5 79 L 179 80 L 178.5 82 L 178 79.5 L 185.5 70 L 190.5 67 Z " /><path fill="rgb(125,181,188)" stroke="rgb(125,181,188)" stroke-width="1" opacity="0.9921568627450981" d="M 121.5 70 L 123 73.5 L 121 73.5 L 122 76.5 L 120 76.5 L 121 80 Q 117.7 81.3 119 76.5 L 121.5 70 Z " /><path fill="rgb(125,181,188)" stroke="rgb(125,181,188)" stroke-width="1" opacity="0.9921568627450981" d="M 222.5 73 Q 226.5 72.5 227 75.5 L 226.5 77 L 222.5 73 Z " /><path fill="rgb(125,181,188)" stroke="rgb(125,181,188)" stroke-width="1" opacity="0.9921568627450981" d="M 210.5 75 L 256 113 L 260 118.5 L 249.5 109 L 223 88 Q 224.1 85.3 221.5 86 L 216 82 Q 217.1 79.3 214.5 80 L 210.5 75 Z " /><path fill="rgb(125,181,188)" stroke="rgb(125,181,188)" stroke-width="1" opacity="0.9921568627450981" d="M 228.5 77 L 232 78.5 L 229.5 79 L 228.5 77 Z " /><path fill="rgb(125,181,188)" stroke="rgb(125,181,188)" stroke-width="1" opacity="0.9921568627450981" d="M 236 77 L 245 78 L 244.5 80 L 240.5 78 L 235.5 80 L 236 78.5 L 236 77 Z " /><path fill="rgb(125,181,188)" stroke="rgb(125,181,188)" stroke-width="1" opacity="0.9921568627450981" d="M 118 81 Q 121 79.8 120 83.5 L 116.5 93 L 116 90.5 L 117 87.5 L 118 81 Z " /><path fill="rgb(125,181,188)" stroke="rgb(125,181,188)" stroke-width="1" opacity="0.9921568627450981" d="M 205.5 92 Q 209.5 91.5 210 94.5 L 209.5 96 L 213 97 Q 211.9 99.7 214.5 99 L 222 104.5 L 223.5 107 L 225 106.5 L 227 111 L 237 116 L 238.5 119 L 246 124 Q 247.1 130.7 242.5 133 Q 240.3 132.3 241 134.5 Q 239.7 137.3 238.5 135 L 235 135 Q 236.1 132.3 233.5 133 L 234 134.5 L 235 137.5 L 234 137.5 L 230 127.5 L 230 118.5 L 224.5 112 L 218.5 108 L 220 110.5 L 222 113.5 L 227 117.5 L 229 130.5 L 233 140 L 236 141.5 L 234.5 142 L 215.5 136 L 208.5 136 L 206.5 134 L 201.5 134 L 194.5 131 L 192.5 132 Q 189.8 129.2 183.5 130 L 180.5 128 L 175.5 128 L 168.5 125 L 166.5 126 L 162.5 123 L 160.5 124 L 168 115.5 L 170 112.5 Q 176.9 105.7 180 96 L 185.5 95 L 186.5 98 L 188 97.5 L 187.5 96 Q 189 101.5 197.5 100 L 204.5 96 L 204.5 97 L 203 97.5 L 208 100 Q 209.1 97.3 206.5 98 L 207.5 95 Q 201.7 96.7 203 93 L 205.5 92 Z M 212 102 Q 210 105 213 104 L 212 102 Z M 215 105 L 215 108 L 218 108 L 215 105 Z M 232 123 L 231 128 L 232 128 L 232 123 Z M 233 128 L 232 131 L 234 132 L 233 128 Z " /><path fill="rgb(125,181,188)" stroke="rgb(125,181,188)" stroke-width="1" opacity="0.9921568627450981" d="M 157 105 L 159 105.5 L 157 106.5 L 157 105 Z " /><path fill="rgb(125,181,188)" stroke="rgb(125,181,188)" stroke-width="1" opacity="0.9921568627450981" d="M 232.5 108 L 237.5 114 L 232.5 108 Z " /><path fill="rgb(125,181,188)" stroke="rgb(125,181,188)" stroke-width="1" opacity="0.9921568627450981" d="M 83.5 112 L 89 115 L 87.5 118 L 83 118 L 83.5 112 Z " /><path fill="rgb(125,181,188)" stroke="rgb(125,181,188)" stroke-width="1" opacity="0.9921568627450981" d="M 239.5 114 Q 241.7 118.3 244 116.5 L 243.5 118 L 251.5 125 L 252 123 L 257.5 122 L 260.5 127 L 261.5 123 L 262 126.5 L 258 134.5 L 251 143 Q 248.9 144.6 243.5 144 L 239 143 Q 242.1 133.8 251 128.5 L 251 125.5 L 239.5 114 Z " /><path fill="rgb(125,181,188)" stroke="rgb(125,181,188)" stroke-width="1" opacity="0.9921568627450981" d="M 197.5 138 L 201 138.5 L 197.5 139 L 197.5 138 Z " /><path fill="rgb(125,181,188)" stroke="rgb(125,181,188)" stroke-width="1" opacity="0.9921568627450981" d="M 205.5 140 L 211 140.5 L 205.5 141 L 205.5 140 Z " /><path fill="rgb(125,181,188)" stroke="rgb(125,181,188)" stroke-width="1" opacity="0.9921568627450981" d="M 216.5 142 L 220 142.5 L 216.5 143 L 216.5 142 Z " /><path fill="rgb(125,181,188)" stroke="rgb(125,181,188)" stroke-width="1" opacity="0.9921568627450981" d="M 209.5 143 L 210.5 145 L 209.5 143 Z " /><path fill="rgb(125,181,188)" stroke="rgb(125,181,188)" stroke-width="1" opacity="0.9921568627450981" d="M 222.5 143 L 231 144.5 L 224.5 145 L 222.5 143 Z " /><path fill="rgb(125,181,188)" stroke="rgb(125,181,188)" stroke-width="1" opacity="0.9921568627450981" d="M 239.5 147 L 243 147.5 L 239.5 148 L 239.5 147 Z " /><path fill="rgb(125,181,188)" stroke="rgb(125,181,188)" stroke-width="1" opacity="0.9921568627450981" d="M 244.5 148 L 249 148.5 L 244.5 149 L 244.5 148 Z " /><path fill="rgb(125,181,188)" stroke="rgb(125,181,188)" stroke-width="1" opacity="0.9921568627450981" d="M 193.5 206 Q 201 205 204 207 L 203 217.5 L 208.5 224 L 212 223 L 212.5 220 L 213 225.5 L 208.5 233 L 204 226 L 199 222.5 Q 200.1 219.2 197.5 220 L 192.5 214 Q 188.5 213.5 188 216.5 L 184.5 223 L 184 216.5 L 193.5 206 Z " /><path fill="rgb(33,81,97)" stroke="rgb(33,81,97)" stroke-width="1" opacity="0.996078431372549" d="M 133.5 49 L 148.5 52 L 177.5 62 L 190.5 65 L 192.5 64 L 196 65.5 L 190.5 67 L 186.5 66 L 186.5 67 L 189 67.5 L 184 70.5 L 176 82 L 173 83.5 L 169.5 89 L 168 89 Q 169.5 92.7 166.5 92 L 144.5 120 L 144 118.5 L 145 115.5 L 142.5 114 L 137.5 115 L 135.5 117 L 129.5 117 L 126 115 L 128.5 111 Q 130.8 111.8 130 109.5 Q 131.3 106.8 132.5 109 L 135.5 106 L 138 106 Q 136.9 103.3 139.5 104 L 141 104.5 L 148.5 94 L 162 84.5 Q 161.3 82.3 163.5 83 L 168.5 80 L 170.5 80 L 172.5 81 L 173 79 L 175.5 80 L 176 75.5 L 175 74.5 L 181 68.5 L 182 66.5 L 168.5 60 L 150.5 55 L 147.5 53 L 136.5 51 L 133.5 50 L 133.5 49 Z M 152 106 L 150 108 L 153 108 L 152 106 Z M 150 109 L 146 112 L 147 115 L 150 111 L 150 109 Z " /><path fill="rgb(33,81,97)" stroke="rgb(33,81,97)" stroke-width="1" opacity="0.996078431372549" d="M 231.5 56 L 234.5 60 L 232.5 59 L 230 60 L 224 69 Q 221 67.8 222 71.5 L 219 73 L 215.5 78 L 213.5 78 L 209 73.5 L 212.5 69 L 215.5 68 L 217.5 69 L 228 59.5 L 229.5 57 L 231.5 56 Z M 218 73 L 216 76 L 218 75 L 218 73 Z " /><path fill="rgb(33,81,97)" stroke="rgb(33,81,97)" stroke-width="1" opacity="0.996078431372549" d="M 201.5 63 L 207 66.5 L 205.5 71 L 197 65.5 Q 196.1 62.5 200.5 64 L 201.5 63 Z " /><path fill="rgb(33,81,97)" stroke="rgb(33,81,97)" stroke-width="1" opacity="0.996078431372549" d="M 128.5 69 L 129 70.5 L 125 82.5 L 122 100.5 L 117 113 Q 114.3 114.1 115 111.5 L 116 107.5 L 115 107.5 L 113.5 113 L 112 109.5 L 114 108.5 L 113 106.5 L 121.5 78 L 122 81.5 L 117 97.5 L 116 107 Q 118.7 108.1 118 105.5 L 122 94.5 L 126 73.5 L 128.5 69 Z " /><path fill="rgb(33,81,97)" stroke="rgb(33,81,97)" stroke-width="1" opacity="0.996078431372549" d="M 225.5 72 L 228 72.5 L 229 75.5 L 225.5 72 Z " /><path fill="rgb(33,81,97)" stroke="rgb(33,81,97)" stroke-width="1" opacity="0.996078431372549" d="M 190.5 79 Q 196.8 78.2 199.5 81 L 250 125.5 L 250 128.5 L 247 133 L 244 134.5 L 238.5 141 L 237 140.5 L 247 130.5 L 248 125.5 L 244 120 L 233 113 Q 234.1 110.3 231.5 111 L 200.5 84 Q 197 80.5 190.5 80 L 190.5 79 Z " /><path fill="rgb(33,81,97)" stroke="rgb(33,81,97)" stroke-width="1" opacity="0.996078431372549" d="M 250.5 81 L 259.5 88 Q 261 84.5 262.5 87 Q 264.8 86.3 264 88.5 L 275 98.5 L 276 100.5 L 274.5 100 L 271 97.5 L 269.5 95 L 268 102.5 L 268 104.5 L 267 107.5 L 271 115.5 L 271 119.5 L 261 133.5 L 258 141 L 255 142.5 Q 255.8 145.1 252.5 144 L 250 143.5 L 260 132.5 Q 263.3 128.3 262.5 120 L 266.5 121 L 268 117.5 Q 262.7 115.3 264 106.5 L 266 98.5 L 265 95.5 L 257.5 88 L 250.5 81 Z M 262 87 L 260 89 L 265 95 L 267 95 L 262 87 Z " /><path fill="rgb(33,81,97)" stroke="rgb(33,81,97)" stroke-width="1" opacity="0.996078431372549" d="M 172.5 99 L 171.5 101 L 172.5 99 Z " /><path fill="rgb(33,81,97)" stroke="rgb(33,81,97)" stroke-width="1" opacity="0.996078431372549" d="M 104.5 109 L 105.5 111 L 104.5 109 Z " /><path fill="rgb(33,81,97)" stroke="rgb(33,81,97)" stroke-width="1" opacity="0.996078431372549" d="M 157.5 116 L 156.5 118 L 157.5 116 Z " /><path fill="rgb(33,81,97)" stroke="rgb(33,81,97)" stroke-width="1" opacity="0.996078431372549" d="M 274.5 138 L 272.5 141 L 274.5 138 Z " /><path fill="rgb(33,81,97)" stroke="rgb(33,81,97)" stroke-width="1" opacity="0.996078431372549" d="M 148.5 219 L 152 220.5 L 152 227.5 Q 155 226.5 154 231.5 L 152 231.5 L 152 239.5 L 154 240 Q 152.3 234.8 156 236 L 156 243 L 159.5 243 L 161.5 244 L 164.5 239 Q 166.3 242.1 168 240.5 Q 166.9 243.8 169.5 243 L 172 247.5 L 170.5 248 L 167 245.5 Q 168.1 242.2 165.5 243 Q 163 244.2 164 248 Q 167 246.8 166 250.5 L 169 255.5 L 168 255.5 L 167 252 L 160.5 252 Q 161.3 248.5 155 250 L 155 248 L 152 248 Q 153.1 244.7 149 246 L 149 244 Q 146.3 245.1 147 242.5 L 148 241.5 L 148 232 Q 143.9 233.7 145 229.5 L 144 224.5 L 145.5 225 L 148.5 226 L 150 221.5 L 148.5 219 Z M 158 244 L 156 248 Q 161 250 160 246 L 162 246 L 158 244 Z " /><path fill="rgb(33,81,97)" stroke="rgb(33,81,97)" stroke-width="1" opacity="0.996078431372549" d="M 186.5 232 Q 192.6 230.8 192 233.5 Q 195.4 237.1 202 237.5 L 196.5 238 L 188.5 235 L 186.5 232 Z " /><path fill="rgb(33,81,97)" stroke="rgb(33,81,97)" stroke-width="1" opacity="0.996078431372549" d="M 182.5 252 L 183.5 254 L 181 253.5 L 182.5 252 Z " /><path fill="rgb(33,81,97)" stroke="rgb(33,81,97)" stroke-width="1" opacity="0.996078431372549" d="M 170 256 L 175 256 L 175 258 L 170 258 L 170 256 Z " /><path fill="rgb(135,101,152)" stroke="rgb(135,101,152)" stroke-width="1" opacity="0.996078431372549" d="M 78.5 104 L 79.5 106 L 81.5 106 L 98 113.5 L 94.5 115 L 90.5 112 L 87.5 112 L 81.5 109 L 79 110 L 80 114.5 L 80 116.5 L 78 120.5 L 78 131.5 L 76 135.5 L 73 159.5 L 70 166.5 L 70 173.5 L 69 174.5 L 67 191.5 L 65 194.5 L 64 206.5 L 62 209.5 Q 63.4 216.9 60 219.5 L 62 220.5 L 64 215 L 66.5 216 L 68.5 204 L 70 204.5 L 70 199.5 L 72 193.5 L 70 193.5 L 69 185.5 L 72.5 179 L 75 180.5 L 77 172.5 L 75 167.5 L 80 158.5 L 80 151.5 L 79 148 L 83 146.5 Q 81.8 140.5 85 141.5 L 85 135.5 L 87 126 Q 89.7 127.1 89 124.5 L 92 118 L 95.5 117 L 103.5 123 L 108.5 124 L 110.5 126 L 114.5 126 L 121.5 129 L 128.5 129 L 139.5 134 L 144.5 134 L 160.5 140 L 167.5 140 Q 169.2 142.8 174.5 142 L 186.5 148 L 198 149 Q 196.9 151.7 199.5 151 L 208 153 Q 206.3 157.1 210.5 156 L 212.5 156 L 214.5 157 L 216.5 157 L 224 160 L 224.5 164 L 226.5 164 L 228 164 L 228.5 166 L 241.5 166 L 244 165 Q 242.7 168.3 247.5 167 L 250 168 L 251.5 172 Q 258.3 170 256 176 L 254 176.5 L 254 183 L 256 183.5 L 254 184 L 258 190.5 L 258 194 L 261 195.5 L 260.5 197 L 262.5 196 L 263 200 L 260 200.5 L 264 201.5 L 259.5 202 L 243 197 Q 244.1 194.3 241.5 195 L 237.5 196 Q 234.5 193 228.5 193 L 225.5 194 L 221.5 191 L 215.5 191 L 211.5 189 L 206.5 189 L 200.5 187 L 193.5 187 L 185.5 189 L 177.5 194 L 176 193.5 Q 175.8 198.3 172.5 200 L 172 197.5 Q 174.5 196 171 194.5 L 169.5 192 L 158.5 192 L 152 193 L 151.5 195 L 144.5 195 L 140.5 198 L 139 197.5 Q 139.9 200.5 135.5 199 L 134.5 200 L 128 200 L 128 204 L 126.5 204 L 124 205.5 L 124 204 L 120 204 L 120 208 L 116 208 Q 118 214 112 212 L 112 210 L 106 210 L 105.5 212 L 96 212 Q 97.3 206.7 94 207.5 L 94 194.5 L 91 193.5 L 91 182.5 L 93 179.5 L 93 168.5 L 92 166.5 L 97 156.5 L 97 154.5 Q 96.2 149.2 99 147.5 L 100 126.5 Q 99.5 122.5 94.5 123 L 92 125.5 Q 92.6 130.1 90 131.5 L 87 153.5 L 84 159.5 Q 85.2 166.2 82 168.5 L 83 170.5 L 80 178.5 L 78 196.5 L 75 199.5 L 75 207.5 L 70 221.5 L 70 228.5 Q 67.8 229.7 69 234.5 L 67 237.5 L 67 243.5 L 65 246.5 L 63 258.5 L 59.5 262 Q 54 262.5 52 259.5 Q 53.3 250.6 51 247 Q 54 248.3 53 244.5 L 53 242.5 L 54 238.5 L 51 234.5 L 51 232.5 L 56 211.5 L 57 201.5 L 60 192.5 L 59 190.5 L 61 183.5 L 63 181.5 L 62 178.5 L 63 175.5 L 71 135.5 L 71 133.5 L 75 117.5 L 76 107.5 L 78.5 104 Z M 96 169 L 95 176 L 96 176 L 96 169 Z M 60 207 L 58 209 L 59 214 L 60 210 Q 62 208 60 207 Z M 58 219 L 54 221 Q 53 228 56 233 Q 55 227 58 225 L 58 219 Z M 59 226 L 60 232 L 61 232 Q 63 225 59 226 Z M 59 234 L 59 238 L 58 243 L 61 242 L 60 240 L 61 238 Q 62 235 59 236 L 59 234 Z M 59 244 L 59 245 L 61 245 L 59 244 Z " /><path fill="rgb(135,101,152)" stroke="rgb(135,101,152)" stroke-width="1" opacity="0.996078431372549" d="M 285.5 125 L 282.5 129 L 285.5 125 Z " /><path fill="rgb(135,101,152)" stroke="rgb(135,101,152)" stroke-width="1" opacity="0.996078431372549" d="M 264.5 148 L 265.5 150 L 264.5 148 Z " /><path fill="rgb(135,101,152)" stroke="rgb(135,101,152)" stroke-width="1" opacity="0.996078431372549" d="M 267.5 150 L 268.5 152 L 267.5 150 Z " /><path fill="rgb(135,101,152)" stroke="rgb(135,101,152)" stroke-width="1" opacity="0.996078431372549" d="M 194.5 205 L 200 205.5 L 194.5 206 L 194.5 205 Z " /><path fill="rgb(135,101,152)" stroke="rgb(135,101,152)" stroke-width="1" opacity="0.996078431372549" d="M 186.5 208 L 185.5 210 L 186.5 208 Z " /><path fill="rgb(135,101,152)" stroke="rgb(135,101,152)" stroke-width="1" opacity="0.996078431372549" d="M 208.5 210 L 209.5 212 L 208.5 210 Z " /><path fill="rgb(135,101,152)" stroke="rgb(135,101,152)" stroke-width="1" opacity="0.996078431372549" d="M 166.5 213 L 166 214.5 L 165.5 217 L 165 214.5 L 166.5 213 Z " /><path fill="rgb(135,101,152)" stroke="rgb(135,101,152)" stroke-width="1" opacity="0.996078431372549" d="M 165.5 218 L 166 223.5 L 165 223.5 L 165.5 218 Z " /><path fill="rgb(135,101,152)" stroke="rgb(135,101,152)" stroke-width="1" opacity="0.996078431372549" d="M 50.5 236 L 52 237.5 L 51.5 240 L 50 239.5 L 51 242.5 L 50 249 Q 47 247.8 48 251.5 L 49 254 Q 46 252.8 47 256.5 L 46 256.5 L 48 242.5 L 50.5 236 Z " /><path fill="rgb(135,101,152)" stroke="rgb(135,101,152)" stroke-width="1" opacity="0.996078431372549" d="M 248.5 271 L 251 274.5 L 248.5 280 L 246.5 279 Q 242.7 282.4 243 289 Q 246.3 290.3 245 285.5 L 247.5 281 L 248 282.5 Q 245.4 283.9 246 288.5 L 240.5 296 Q 238 295 239 290.5 L 241 282.5 L 248.5 271 Z " /><path fill="rgb(135,101,152)" stroke="rgb(135,101,152)" stroke-width="1" opacity="0.996078431372549" d="M 246.5 323 L 249 323.5 L 246.5 324 L 246.5 323 Z " /><path fill="rgb(128,122,170)" stroke="rgb(128,122,170)" stroke-width="1" opacity="0.9882352941176471" d="M 125.5 38 L 129 39 L 129 48.5 L 126 53.5 L 122 69.5 L 120 71.5 L 120 73.5 Q 121.1 76.8 118.5 76 L 119 77.5 Q 119 84.5 116 88.5 L 116 90.5 L 117 93.5 L 111.5 108 L 112 106.5 L 111 102.5 L 111 100.5 L 110.5 99 Q 110.2 105.2 106.5 108 Q 103.5 108.7 105 105 L 108 103.5 L 114 80.5 Q 111.5 79 115 77.5 L 121 53.5 L 124 48.5 L 124 46.5 L 125 40.5 Q 122.7 39.3 125.5 38 Z M 120 66 L 119 69 L 120 69 L 120 66 Z M 119 69 L 117 72 L 119 73 L 119 69 Z M 116 82 L 115 85 L 116 85 L 116 82 Z M 112 96 L 111 99 L 112 99 L 112 96 Z M 112 99 L 112 101 L 114 100 L 112 99 Z " /><path fill="rgb(128,122,170)" stroke="rgb(128,122,170)" stroke-width="1" opacity="0.9882352941176471" d="M 230 45 L 244 56.5 L 251.5 65 L 280 91.5 Q 279.3 93.8 281.5 93 L 287 99.5 L 288 111.5 L 281 121 L 276 124.5 L 271.5 132 Q 269.3 131.3 270 133.5 L 269 135.5 L 272.5 135 L 278 133 L 279.5 130 L 281 130.5 L 268 142.5 Q 268.8 145.1 265.5 144 L 262.5 146 L 260 145 L 262 135.5 L 267 126 L 270 124.5 Q 267.8 123.3 270.5 122 Q 272.8 122.8 272 120.5 L 276 115 L 273.5 116 L 274 114.5 L 275.5 112 Q 277.8 112.8 277 110.5 Q 280.9 108.9 280 102.5 L 272 96 L 264.5 87 L 237 60.5 L 238 57.5 L 231.5 48 L 227.5 49 L 228.5 47 Q 231.1 47.7 230 45 Z " /><path fill="rgb(128,122,170)" stroke="rgb(128,122,170)" stroke-width="1" opacity="0.9882352941176471" d="M 132.5 49 L 142 52.5 L 140.5 53 L 132.5 51 L 130.5 54 L 130 52.5 L 132.5 49 Z " /><path fill="rgb(128,122,170)" stroke="rgb(128,122,170)" stroke-width="1" opacity="0.9882352941176471" d="M 226.5 50 L 227.5 57 L 229 56.5 L 225.5 61 L 220.5 61 L 216 64 L 215.5 66 L 215 63.5 L 218 59 L 220 59 L 220 56 L 222 56 Q 220.9 53.3 223.5 54 L 224.5 51 L 226.5 50 Z " /><path fill="rgb(128,122,170)" stroke="rgb(128,122,170)" stroke-width="1" opacity="0.9882352941176471" d="M 131.5 55 L 132 56.5 L 131 58.5 L 134 60 L 134 64 L 135.5 64 L 138.5 65 L 144.5 63 L 145 64.5 L 142.5 67 L 140.5 67 L 138.5 68 Q 137.5 65 132.5 66 L 126 70.5 L 124.5 73 L 125 71.5 L 124.5 70 L 123 70.5 L 128.5 56 L 131.5 55 Z " /><path fill="rgb(128,122,170)" stroke="rgb(128,122,170)" stroke-width="1" opacity="0.9882352941176471" d="M 152.5 55 L 156 56.5 L 154.5 57 L 152.5 55 Z " /><path fill="rgb(128,122,170)" stroke="rgb(128,122,170)" stroke-width="1" opacity="0.9882352941176471" d="M 158.5 57 L 162 58.5 L 160.5 59 L 158.5 57 Z " /><path fill="rgb(128,122,170)" stroke="rgb(128,122,170)" stroke-width="1" opacity="0.9882352941176471" d="M 188.5 57 Q 198.8 55.2 203 59.5 L 200.5 61 L 194.5 59 L 186.5 63 L 185.5 62 L 179 62 Q 177.7 58.7 182.5 60 L 188.5 57 Z " /><path fill="rgb(128,122,170)" stroke="rgb(128,122,170)" stroke-width="1" opacity="0.9882352941176471" d="M 171 62 L 176 64.5 L 177 68.5 Q 175.8 71 172 70 L 173 63.5 L 171 63.5 L 171 62 Z " /><path fill="rgb(128,122,170)" stroke="rgb(128,122,170)" stroke-width="1" opacity="0.9882352941176471" d="M 211.5 65 L 214 65.5 L 210 68.5 Q 213.1 66.8 211.5 65 Z " /><path fill="rgb(128,122,170)" stroke="rgb(128,122,170)" stroke-width="1" opacity="0.9882352941176471" d="M 191.5 66 L 197 66.5 L 191.5 67 L 191.5 66 Z " /><path fill="rgb(128,122,170)" stroke="rgb(128,122,170)" stroke-width="1" opacity="0.9882352941176471" d="M 187.5 68 L 186.5 70 L 187.5 68 Z " /><path fill="rgb(128,122,170)" stroke="rgb(128,122,170)" stroke-width="1" opacity="0.9882352941176471" d="M 209.5 70 L 208.5 72 L 209.5 70 Z " /><path fill="rgb(128,122,170)" stroke="rgb(128,122,170)" stroke-width="1" opacity="0.9882352941176471" d="M 183.5 72 L 182.5 74 L 183.5 72 Z " /><path fill="rgb(128,122,170)" stroke="rgb(128,122,170)" stroke-width="1" opacity="0.9882352941176471" d="M 208.5 73 L 209.5 75 L 208.5 73 Z " /><path fill="rgb(128,122,170)" stroke="rgb(128,122,170)" stroke-width="1" opacity="0.9882352941176471" d="M 180.5 76 L 179.5 78 L 180.5 76 Z " /><path fill="rgb(128,122,170)" stroke="rgb(128,122,170)" stroke-width="1" opacity="0.9882352941176471" d="M 183.5 77 L 186 78 L 186.5 81 L 189.5 79 L 189.5 80 L 188 80.5 Q 195.6 80.4 199.5 84 L 236 115.5 L 234.5 115 L 232.5 116 Q 234.2 114 230.5 112 L 227 111 L 224.5 106 Q 223.3 108.3 222 105.5 L 220.5 103 L 213 99 Q 214.1 96.3 211.5 97 L 209 95.5 Q 211.8 93.8 207.5 92 L 203 93 Q 201.7 96.7 207.5 95 L 206.5 97 L 203.5 96 L 199.5 99 L 197.5 98 L 197.5 100 L 195.5 100 L 191 100 Q 192.1 97.3 189.5 98 L 187.5 95 L 185.5 95 L 181.5 96 L 180.5 95 L 177.5 98 L 175 99.5 L 176 100.5 L 172 104.5 Q 173.5 108.9 170.5 108 L 164.5 116 L 161 114.5 L 164 110 L 161.5 111 L 160 110.5 L 161 112.5 L 156 115.5 L 157 116.5 L 151.5 122 L 147 121.5 L 151 120.5 L 147 118.5 Q 154.9 104.4 166.5 94 L 168 93.5 Q 165.5 92 169 90.5 L 177.5 80 L 178.5 82 L 179 80 L 182.5 79 L 184.5 80 L 183.5 77 Z M 185 81 L 184 82 Q 180 81 182 85 L 181 85 L 168 102 L 171 101 Q 169 105 168 102 L 163 108 L 167 107 Q 169 108 168 104 L 170 104 L 174 98 L 174 96 L 180 90 Q 179 87 183 88 L 182 87 Q 182 83 187 84 L 188 82 L 187 82 L 185 81 Z M 177 94 L 175 96 L 177 96 L 177 94 Z M 157 105 L 157 107 L 159 106 L 157 105 Z M 161 108 L 161 110 L 163 109 L 161 108 Z " /><path fill="rgb(128,122,170)" stroke="rgb(128,122,170)" stroke-width="1" opacity="0.9882352941176471" d="M 191.5 78 L 194 78.5 L 191.5 79 L 191.5 78 Z " /><path fill="rgb(128,122,170)" stroke="rgb(128,122,170)" stroke-width="1" opacity="0.9882352941176471" d="M 202.5 83 L 203.5 85 L 202.5 83 Z " /><path fill="rgb(128,122,170)" stroke="rgb(128,122,170)" stroke-width="1" opacity="0.9882352941176471" d="M 210.5 90 L 212.5 93 L 210.5 90 Z " /><path fill="rgb(128,122,170)" stroke="rgb(128,122,170)" stroke-width="1" opacity="0.9882352941176471" d="M 217.5 96 L 220.5 100 L 217.5 96 Z " /><path fill="rgb(128,122,170)" stroke="rgb(128,122,170)" stroke-width="1" opacity="0.9882352941176471" d="M 106.5 97 L 106 98.5 L 104.5 104 L 104 101.5 L 106.5 97 Z " /><path fill="rgb(128,122,170)" stroke="rgb(128,122,170)" stroke-width="1" opacity="0.9882352941176471" d="M 78.5 103 Q 81.1 102.2 80 105.5 L 79 105.5 L 78.5 104 L 76.5 107 L 77 105.5 L 78.5 103 Z " /><path fill="rgb(128,122,170)" stroke="rgb(128,122,170)" stroke-width="1" opacity="0.9882352941176471" d="M 174.5 106 L 173.5 108 L 174.5 106 Z " /><path fill="rgb(128,122,170)" stroke="rgb(128,122,170)" stroke-width="1" opacity="0.9882352941176471" d="M 75.5 108 L 76 111.5 L 72.5 127 L 72 122.5 L 74 115.5 L 74 113.5 L 75.5 108 Z " /><path fill="rgb(128,122,170)" stroke="rgb(128,122,170)" stroke-width="1" opacity="0.9882352941176471" d="M 231.5 108 L 233.5 111 L 231.5 108 Z " /><path fill="rgb(128,122,170)" stroke="rgb(128,122,170)" stroke-width="1" opacity="0.9882352941176471" d="M 81.5 109 L 87.5 112 L 90.5 112 L 94.5 115 Q 95.7 112.7 100.5 114 L 109.5 118 L 114.5 118 L 138 124 Q 136.8 127 140.5 126 L 140.5 124 L 153.5 128 L 159.5 128 L 172 132.5 L 169 133.5 L 176.5 134 L 179.5 133 L 187.5 136 Q 193.9 135.1 197 137.5 L 194.5 138 Q 192.8 135.3 186.5 137 L 186.5 138 L 196.5 140 L 199.5 142 L 205.5 142 L 210.5 145 L 216.5 145 L 224.5 148 L 231.5 148 L 235.5 151 L 246.5 152 L 252.5 155 L 255.5 155 L 265 162.5 L 270 174.5 L 270 187.5 L 269 189.5 L 270 191.5 L 268 200.5 L 268 202.5 Q 268.8 204.8 266.5 204 L 264 203 Q 265.3 199.7 260.5 201 L 260.5 200 Q 264.7 201.3 263 196.5 L 261.5 197 L 260 196.5 Q 262.3 195.3 259.5 194 Q 256.5 194.9 258 190.5 L 254 184 L 256 183.5 L 254 183 L 254 176.5 Q 257.2 177.3 256 172 Q 251.4 173.3 250 170.5 Q 251.1 167.2 248.5 168 L 244 167 Q 245.1 164.3 242.5 165 L 241.5 166 L 228 166 Q 229.1 163.3 226.5 164 L 224 163.5 Q 225.5 159.1 222.5 160 L 215.5 156 L 213.5 156 L 211.5 157 L 208 156 Q 209.8 151.5 204.5 153 L 198 151 L 197.5 149 L 190.5 149 L 174.5 142 Q 169.2 142.8 167.5 140 L 160.5 140 Q 152.2 134.8 139.5 134 L 128.5 129 L 121.5 129 L 114.5 126 L 110.5 126 L 94.5 117 L 92 118 L 89 126 Q 86 124.8 87 128.5 L 85 135.5 L 85 142 Q 81.3 140.7 83 146.5 L 79 148 Q 80.7 151.5 80 158.5 L 75 167.5 L 77 173.5 L 74.5 181 L 72 179.5 L 69 185.5 L 69 188.5 L 70.5 194 L 72 193.5 L 69.5 205 L 68 204.5 Q 68.9 211.9 66.5 216 L 64 215 L 61.5 221 Q 58.7 219.8 61 218.5 L 62 209.5 L 64 206.5 L 65 194.5 L 67 191.5 L 67 186.5 L 70 173.5 L 70 166.5 L 73 159.5 L 76 135.5 L 78 131.5 L 78 120.5 L 80 116.5 L 80 114.5 L 79 110 L 81.5 109 Z M 84 112 L 83 118 L 88 118 L 89 115 L 84 112 Z " /><path fill="rgb(128,122,170)" stroke="rgb(128,122,170)" stroke-width="1" opacity="0.9882352941176471" d="M 172.5 109 L 171.5 111 L 172.5 109 Z " /><path fill="rgb(128,122,170)" stroke="rgb(128,122,170)" stroke-width="1" opacity="0.9882352941176471" d="M 238.5 114 L 239.5 116 L 238.5 114 Z " /><path fill="rgb(128,122,170)" stroke="rgb(128,122,170)" stroke-width="1" opacity="0.9882352941176471" d="M 256.5 114 L 258.5 117 L 256.5 114 Z " /><path fill="rgb(128,122,170)" stroke="rgb(128,122,170)" stroke-width="1" opacity="0.9882352941176471" d="M 237.5 116 L 247 124.5 L 248 127.5 L 239.5 138 L 235.5 140 L 233 133.5 L 235 133 Q 233.7 136.3 238.5 135 Q 239.7 137.3 241 134.5 Q 240.3 132.3 242.5 133 Q 247.1 130.7 246 124 L 237 117.5 L 237.5 116 Z " /><path fill="rgb(128,122,170)" stroke="rgb(128,122,170)" stroke-width="1" opacity="0.9882352941176471" d="M 158.5 117 L 161 118.5 L 157 121 L 158.5 117 Z " /><path fill="rgb(128,122,170)" stroke="rgb(128,122,170)" stroke-width="1" opacity="0.9882352941176471" d="M 245.5 120 L 246.5 122 L 245.5 120 Z " /><path fill="rgb(128,122,170)" stroke="rgb(128,122,170)" stroke-width="1" opacity="0.9882352941176471" d="M 287.5 122 L 286.5 124 L 287.5 122 Z " /><path fill="rgb(128,122,170)" stroke="rgb(128,122,170)" stroke-width="1" opacity="0.9882352941176471" d="M 231.5 123 L 234 131.5 L 232 130.5 L 231.5 123 Z " /><path fill="rgb(128,122,170)" stroke="rgb(128,122,170)" stroke-width="1" opacity="0.9882352941176471" d="M 284.5 125 L 282.5 128 L 284.5 125 Z " /><path fill="rgb(128,122,170)" stroke="rgb(128,122,170)" stroke-width="1" opacity="0.9882352941176471" d="M 71.5 128 L 72 130.5 L 71 130.5 L 71.5 128 Z " /><path fill="rgb(128,122,170)" stroke="rgb(128,122,170)" stroke-width="1" opacity="0.9882352941176471" d="M 173.5 132 L 176 132.5 L 173.5 133 L 173.5 132 Z " /><path fill="rgb(128,122,170)" stroke="rgb(128,122,170)" stroke-width="1" opacity="0.9882352941176471" d="M 69.5 139 L 70 141.5 L 69 141.5 L 69.5 139 Z " /><path fill="rgb(128,122,170)" stroke="rgb(128,122,170)" stroke-width="1" opacity="0.9882352941176471" d="M 240.5 139 L 239.5 141 L 240.5 139 Z " /><path fill="rgb(128,122,170)" stroke="rgb(128,122,170)" stroke-width="1" opacity="0.9882352941176471" d="M 253.5 139 L 251.5 142 L 253.5 139 Z " /><path fill="rgb(128,122,170)" stroke="rgb(128,122,170)" stroke-width="1" opacity="0.9882352941176471" d="M 65.5 160 L 66 163.5 L 65 163.5 L 65.5 160 Z " /><path fill="rgb(128,122,170)" stroke="rgb(128,122,170)" stroke-width="1" opacity="0.9882352941176471" d="M 64.5 165 L 65 167.5 L 64 167.5 L 64.5 165 Z " /><path fill="rgb(128,122,170)" stroke="rgb(128,122,170)" stroke-width="1" opacity="0.9882352941176471" d="M 61.5 180 L 62 182.5 L 61 182.5 L 61.5 180 Z " /><path fill="rgb(128,122,170)" stroke="rgb(128,122,170)" stroke-width="1" opacity="0.9882352941176471" d="M 58.5 195 L 59 197.5 L 58 197.5 L 58.5 195 Z " /><path fill="rgb(128,122,170)" stroke="rgb(128,122,170)" stroke-width="1" opacity="0.9882352941176471" d="M 271.5 198 L 272 199.5 L 270.5 202 L 270 200.5 L 271.5 198 Z " /><path fill="rgb(128,122,170)" stroke="rgb(128,122,170)" stroke-width="1" opacity="0.9882352941176471" d="M 191.5 206 L 193 206.5 L 188 210.5 Q 191.1 208.8 189.5 207 L 191.5 206 Z " /><path fill="rgb(128,122,170)" stroke="rgb(128,122,170)" stroke-width="1" opacity="0.9882352941176471" d="M 186.5 212 L 185 214.5 L 184.5 216 L 184 214.5 L 186.5 212 Z " /><path fill="rgb(128,122,170)" stroke="rgb(128,122,170)" stroke-width="1" opacity="0.9882352941176471" d="M 190.5 214 L 194 215.5 L 197.5 220 Q 200.1 219.2 199 222.5 L 204 226 L 208 232.5 L 205 234 L 205 232 L 203 232 Q 204.1 229.3 201.5 230 Q 195 226.5 192.5 219 L 187 218.5 L 190.5 214 Z " /><path fill="rgb(128,122,170)" stroke="rgb(128,122,170)" stroke-width="1" opacity="0.9882352941176471" d="M 183.5 217 L 184.5 223 L 186.5 220 L 187 221.5 L 184.5 225 Q 181.1 223.1 183.5 217 Z " /><path fill="rgb(128,122,170)" stroke="rgb(128,122,170)" stroke-width="1" opacity="0.9882352941176471" d="M 59 226 Q 63 224.6 61 231.5 L 59 232.5 L 60 228.5 L 59 226 Z " /><path fill="rgb(128,122,170)" stroke="rgb(128,122,170)" stroke-width="1" opacity="0.9882352941176471" d="M 50.5 232 L 51 235.5 L 50 235.5 L 50.5 232 Z " /><path fill="rgb(128,122,170)" stroke="rgb(128,122,170)" stroke-width="1" opacity="0.9882352941176471" d="M 58.5 234 L 59 236 Q 61.7 234.9 61 237.5 L 60 239.5 L 61 241.5 L 58 243 L 59 237.5 L 58.5 234 Z " /><path fill="rgb(128,122,170)" stroke="rgb(128,122,170)" stroke-width="1" opacity="0.9882352941176471" d="M 58.5 244 L 61 244.5 L 58.5 245 L 58.5 244 Z " /><path fill="rgb(128,122,170)" stroke="rgb(128,122,170)" stroke-width="1" opacity="0.9882352941176471" d="M 46.5 250 L 47 252.5 L 46 252.5 L 46.5 250 Z " /><path fill="rgb(128,122,170)" stroke="rgb(128,122,170)" stroke-width="1" opacity="0.9882352941176471" d="M 45.5 255 L 46 257.5 L 45 257.5 L 45.5 255 Z " /><path fill="rgb(128,122,170)" stroke="rgb(128,122,170)" stroke-width="1" opacity="0.9882352941176471" d="M 48.5 262 L 49.5 264 L 48.5 262 Z " /><path fill="rgb(128,122,170)" stroke="rgb(128,122,170)" stroke-width="1" opacity="0.9882352941176471" d="M 51.5 264 L 52.5 266 L 51.5 264 Z " /><path fill="rgb(128,122,170)" stroke="rgb(128,122,170)" stroke-width="1" opacity="0.9882352941176471" d="M 246.5 279 Q 248.8 278.3 248 280.5 Q 244.2 283.3 245 289 Q 241.7 290.3 243 285.5 L 246.5 279 Z " /><path fill="rgb(184,189,224)" stroke="rgb(184,189,224)" stroke-width="1" opacity="0.8352941176470589" d="M 127.5 35 L 133 35.5 Q 125.5 35 123 39.5 L 120 48.5 L 120 52.5 L 115.5 63 L 115 61.5 L 122 39.5 L 125.5 36 L 127.5 35 Z " /><path fill="rgb(184,189,224)" stroke="rgb(184,189,224)" stroke-width="1" opacity="0.8352941176470589" d="M 134.5 36 L 143.5 37 L 160.5 42 L 199 56.5 L 197.5 57 L 187 54 L 186.5 56 L 182.5 54 L 173 53 Q 174.5 56.8 171.5 56 L 168.5 57 L 137 48 Q 138.1 41.8 134 39.5 L 136 39 Q 137.1 36.3 134.5 37 L 134.5 36 Z " /><path fill="rgb(184,189,224)" stroke="rgb(184,189,224)" stroke-width="1" opacity="0.8352941176470589" d="M 231.5 43 L 235.5 43 L 250.5 58 L 252 58 Q 250.9 60.7 253.5 60 L 258.5 65 L 260 64.5 Q 257.8 65.8 260.5 67 Q 261.8 64.8 263 67.5 Q 260.2 69.3 264.5 71 L 266 70.5 L 265 71.5 L 297.5 104 L 299 103.5 L 298 105.5 L 299 110.5 L 291 119.5 L 294 120.5 L 291.5 121 L 289 119.5 Q 295.8 116.2 297 109 Q 292.3 110 291 106.5 L 290 101 L 292 100.5 L 288 98 L 288 96.5 L 276.5 85 L 272 81.5 Q 272.8 79.3 270.5 80 L 266.5 75 L 240 50.5 L 238.5 48 L 236 46.5 Q 236.8 44.3 234.5 45 L 231.5 44 L 226 48.5 L 221.5 54 L 221.5 51 L 225 49.5 L 229.5 44 L 231.5 43 Z " /><path fill="rgb(184,189,224)" stroke="rgb(184,189,224)" stroke-width="1" opacity="0.8352941176470589" d="M 220.5 55 L 218 58.5 L 213.5 64 L 212.5 62 Q 213.8 64.3 215 61.5 L 217 58.5 L 220.5 55 Z " /><path fill="rgb(184,189,224)" stroke="rgb(184,189,224)" stroke-width="1" opacity="0.8352941176470589" d="M 126.5 56 L 127 58.5 L 124.5 65 L 124 62.5 L 126.5 56 Z " /><path fill="rgb(184,189,224)" stroke="rgb(184,189,224)" stroke-width="1" opacity="0.8352941176470589" d="M 200.5 57 L 203 58.5 L 201.5 58 L 200.5 57 Z " /><path fill="rgb(184,189,224)" stroke="rgb(184,189,224)" stroke-width="1" opacity="0.8352941176470589" d="M 151.5 61 L 161 67.5 L 158.5 68 Q 156.9 62.6 150 62.5 L 151.5 61 Z " /><path fill="rgb(184,189,224)" stroke="rgb(184,189,224)" stroke-width="1" opacity="0.8352941176470589" d="M 114.5 64 Q 117.3 65.3 115 66.5 L 113.5 70 L 113 68.5 L 114.5 64 Z " /><path fill="rgb(184,189,224)" stroke="rgb(184,189,224)" stroke-width="1" opacity="0.8352941176470589" d="M 212.5 65 L 209.5 69 L 208.5 67 L 209.5 68 L 212.5 65 Z " /><path fill="rgb(184,189,224)" stroke="rgb(184,189,224)" stroke-width="1" opacity="0.8352941176470589" d="M 132.5 67 L 138 68.5 L 136.5 69 L 132.5 68 L 132.5 67 Z " /><path fill="rgb(184,189,224)" stroke="rgb(184,189,224)" stroke-width="1" opacity="0.8352941176470589" d="M 164.5 68 L 167 68.5 L 164.5 69 L 164.5 68 Z " /><path fill="rgb(184,189,224)" stroke="rgb(184,189,224)" stroke-width="1" opacity="0.8352941176470589" d="M 122.5 69 L 123 71.5 L 122 71.5 L 122.5 69 Z " /><path fill="rgb(184,189,224)" stroke="rgb(184,189,224)" stroke-width="1" opacity="0.8352941176470589" d="M 200.5 69 L 204 71.5 L 203.5 73 L 201 72 L 200.5 69 Z " /><path fill="rgb(184,189,224)" stroke="rgb(184,189,224)" stroke-width="1" opacity="0.8352941176470589" d="M 112.5 71 L 113 73.5 L 112 73.5 L 112.5 71 Z " /><path fill="rgb(184,189,224)" stroke="rgb(184,189,224)" stroke-width="1" opacity="0.8352941176470589" d="M 206.5 71 L 208 75 L 216 80 Q 214.9 82.7 217.5 82 L 223 86 Q 221.9 88.7 224.5 88 L 260 119.5 L 261 126.5 L 260 126.5 L 257.5 122 L 252 123 L 251.5 125 L 214 92.5 L 211.5 88 Q 210 90.5 208.5 87 L 205 84.5 L 210.5 84 Q 211.6 86.7 215 86 L 215 82 L 213.5 82 L 208 77.5 Q 208.9 74.5 204.5 76 L 205 74.5 L 206.5 71 Z M 215 87 Q 215 93 220 96 L 223 95 L 221 89 Q 217 90 218 87 L 215 87 Z " /><path fill="rgb(184,189,224)" stroke="rgb(184,189,224)" stroke-width="1" opacity="0.8352941176470589" d="M 111.5 75 Q 114.3 76.3 112 77.5 L 109.5 85 L 109 82.5 L 111.5 75 Z " /><path fill="rgb(184,189,224)" stroke="rgb(184,189,224)" stroke-width="1" opacity="0.8352941176470589" d="M 108 86 L 110 86.5 L 107.5 92 L 107 89.5 L 108 86 Z " /><path fill="rgb(184,189,224)" stroke="rgb(184,189,224)" stroke-width="1" opacity="0.8352941176470589" d="M 92.5 96 L 105.5 96 L 106 97.5 L 104.5 97 L 92.5 97 L 92.5 96 Z " /><path fill="rgb(184,189,224)" stroke="rgb(184,189,224)" stroke-width="1" opacity="0.8352941176470589" d="M 185.5 96 L 190 99.5 L 187.5 98 L 185.5 96 Z " /><path fill="rgb(184,189,224)" stroke="rgb(184,189,224)" stroke-width="1" opacity="0.8352941176470589" d="M 86.5 97 L 88 97.5 L 81.5 100 L 77 104.5 L 73.5 114 L 73 112.5 L 76 103.5 Q 73.8 102.3 76.5 101 L 77.5 102 L 80.5 99 L 86.5 97 Z " /><path fill="rgb(184,189,224)" stroke="rgb(184,189,224)" stroke-width="1" opacity="0.8352941176470589" d="M 203.5 97 L 208 98 Q 206.9 100.7 209.5 100 L 226 113.5 L 230 118.5 L 230 127.5 L 235 140 Q 232.3 141.1 233 138.5 L 229 130.5 L 228 119.5 L 224.5 115 L 222 113.5 L 220 110.5 Q 218.8 107.3 215 108 L 212.5 104 Q 210.3 104.8 211 102.5 L 203.5 98 L 202 98.5 L 203.5 97 Z " /><path fill="rgb(184,189,224)" stroke="rgb(184,189,224)" stroke-width="1" opacity="0.8352941176470589" d="M 73.5 115 L 74 116.5 L 70.5 132 L 70 128.5 L 73.5 115 Z " /><path fill="rgb(184,189,224)" stroke="rgb(184,189,224)" stroke-width="1" opacity="0.8352941176470589" d="M 295.5 121 Q 303.6 123.9 308 130.5 L 311 135.5 L 309 134.5 L 302.5 126 L 300 126 Q 301.1 123.3 298.5 124 L 295.5 121 Z " /><path fill="rgb(184,189,224)" stroke="rgb(184,189,224)" stroke-width="1" opacity="0.8352941176470589" d="M 138.5 125 L 141 125.5 L 138.5 126 L 138.5 125 Z " /><path fill="rgb(184,189,224)" stroke="rgb(184,189,224)" stroke-width="1" opacity="0.8352941176470589" d="M 169.5 133 L 175 133.5 L 169.5 134 L 169.5 133 Z " /><path fill="rgb(184,189,224)" stroke="rgb(184,189,224)" stroke-width="1" opacity="0.8352941176470589" d="M 69.5 134 L 70 138.5 L 69 138.5 L 69.5 134 Z " /><path fill="rgb(184,189,224)" stroke="rgb(184,189,224)" stroke-width="1" opacity="0.8352941176470589" d="M 186.5 137 L 193.5 137 Q 196.2 139.8 202.5 139 L 205.5 141 L 221.5 143 L 224.5 145 L 231.5 145 L 239.5 148 L 256.5 150 Q 257.9 152.6 262.5 152 L 268 156 L 275 166.5 L 276 177.5 L 273 186.5 L 273 190.5 L 271 193.5 L 271 199.5 L 269.5 201 Q 266.5 201.9 268 197.5 L 270 191.5 L 270 174.5 L 263.5 161 L 255.5 155 Q 249.4 155.6 247.5 152 L 235.5 151 L 231.5 148 L 224.5 148 L 216.5 145 L 211.5 145 L 207.5 142 L 200.5 142 Q 198.5 139 192.5 140 Q 191.1 137.4 186.5 138 L 186.5 137 Z " /><path fill="rgb(184,189,224)" stroke="rgb(184,189,224)" stroke-width="1" opacity="0.8352941176470589" d="M 68.5 140 L 69 143.5 L 68 143.5 L 68.5 140 Z " /><path fill="rgb(184,189,224)" stroke="rgb(184,189,224)" stroke-width="1" opacity="0.8352941176470589" d="M 302 141 Q 305.3 139.9 304 144 Q 300.7 145.1 302 141 Z " /><path fill="rgb(184,189,224)" stroke="rgb(184,189,224)" stroke-width="1" opacity="0.8352941176470589" d="M 67.5 145 L 68 149.5 L 67 149.5 L 67.5 145 Z " /><path fill="rgb(184,189,224)" stroke="rgb(184,189,224)" stroke-width="1" opacity="0.8352941176470589" d="M 314.5 145 L 315 147.5 L 314 147.5 L 314.5 145 Z " /><path fill="rgb(184,189,224)" stroke="rgb(184,189,224)" stroke-width="1" opacity="0.8352941176470589" d="M 66.5 151 L 67 154.5 L 66 154.5 L 66.5 151 Z " /><path fill="rgb(184,189,224)" stroke="rgb(184,189,224)" stroke-width="1" opacity="0.8352941176470589" d="M 272.5 155 L 273 157 Q 275.7 155.9 275 158.5 L 279 166.5 L 277 165.5 L 277 162 L 273 160 L 273 157.5 L 272.5 155 Z " /><path fill="rgb(184,189,224)" stroke="rgb(184,189,224)" stroke-width="1" opacity="0.8352941176470589" d="M 65.5 156 L 66 159.5 L 65 159.5 L 65.5 156 Z " /><path fill="rgb(184,189,224)" stroke="rgb(184,189,224)" stroke-width="1" opacity="0.8352941176470589" d="M 64.5 161 L 65 164.5 L 62.5 175 L 62 171.5 L 64.5 161 Z " /><path fill="rgb(184,189,224)" stroke="rgb(184,189,224)" stroke-width="1" opacity="0.8352941176470589" d="M 61.5 176 L 62 179.5 L 61 179.5 L 61.5 176 Z " /><path fill="rgb(184,189,224)" stroke="rgb(184,189,224)" stroke-width="1" opacity="0.8352941176470589" d="M 60.5 181 L 61 184.5 L 60 184.5 L 60.5 181 Z " /><path fill="rgb(184,189,224)" stroke="rgb(184,189,224)" stroke-width="1" opacity="0.8352941176470589" d="M 58.5 191 L 59 194.5 L 58 194.5 L 58.5 191 Z " /><path fill="rgb(184,189,224)" stroke="rgb(184,189,224)" stroke-width="1" opacity="0.8352941176470589" d="M 57.5 196 L 58 199.5 L 57 199.5 L 57.5 196 Z " /><path fill="rgb(184,189,224)" stroke="rgb(184,189,224)" stroke-width="1" opacity="0.8352941176470589" d="M 56.5 201 L 57 203.5 L 56 203.5 L 56.5 201 Z " /><path fill="rgb(184,189,224)" stroke="rgb(184,189,224)" stroke-width="1" opacity="0.8352941176470589" d="M 302.5 205 L 305.5 207 L 307 206.5 L 306.5 209 L 304 207.5 Q 304.8 205.3 302.5 206 L 302.5 205 Z " /><path fill="rgb(184,189,224)" stroke="rgb(184,189,224)" stroke-width="1" opacity="0.8352941176470589" d="M 55.5 206 L 56 209.5 L 55 209.5 L 55.5 206 Z " /><path fill="rgb(184,189,224)" stroke="rgb(184,189,224)" stroke-width="1" opacity="0.8352941176470589" d="M 204.5 208 L 210 212.5 L 213 219.5 L 212 223 L 208.5 224 Q 201.6 221.9 203 211.5 L 204.5 208 Z " /><path fill="rgb(184,189,224)" stroke="rgb(184,189,224)" stroke-width="1" opacity="0.8352941176470589" d="M 279.5 210 L 288 211.5 L 282.5 212 L 279.5 211 L 279.5 210 Z " /><path fill="rgb(184,189,224)" stroke="rgb(184,189,224)" stroke-width="1" opacity="0.8352941176470589" d="M 54.5 211 L 55 214.5 L 54 214.5 L 54.5 211 Z " /><path fill="rgb(184,189,224)" stroke="rgb(184,189,224)" stroke-width="1" opacity="0.8352941176470589" d="M 53.5 219 L 53 220.5 L 52.5 224 L 52 220.5 L 53.5 219 Z " /><path fill="rgb(184,189,224)" stroke="rgb(184,189,224)" stroke-width="1" opacity="0.8352941176470589" d="M 51.5 225 L 52 228.5 L 50.5 232 L 50 229.5 L 51.5 225 Z " /><path fill="rgb(184,189,224)" stroke="rgb(184,189,224)" stroke-width="1" opacity="0.8352941176470589" d="M 49.5 233 L 50 236.5 L 49 236.5 L 49.5 233 Z " /><path fill="rgb(184,189,224)" stroke="rgb(184,189,224)" stroke-width="1" opacity="0.8352941176470589" d="M 48.5 238 L 49 240.5 L 48 240.5 L 48.5 238 Z " /><path fill="rgb(184,189,224)" stroke="rgb(184,189,224)" stroke-width="1" opacity="0.8352941176470589" d="M 47.5 242 L 48 244.5 L 47 244.5 L 47.5 242 Z " /><path fill="rgb(184,189,224)" stroke="rgb(184,189,224)" stroke-width="1" opacity="0.8352941176470589" d="M 46.5 246 L 47 249.5 L 46 249.5 L 46.5 246 Z " /><path fill="rgb(184,189,224)" stroke="rgb(184,189,224)" stroke-width="1" opacity="0.8352941176470589" d="M 45.5 251 L 46 254.5 L 45 254.5 L 45.5 251 Z " /><path fill="rgb(184,189,224)" stroke="rgb(184,189,224)" stroke-width="1" opacity="0.8352941176470589" d="M 45.5 258 L 47 260.5 L 45 259.5 L 45.5 258 Z " /><path fill="rgb(184,189,224)" stroke="rgb(184,189,224)" stroke-width="1" opacity="0.8352941176470589" d="M 50 266 L 52.5 267 L 54 266.5 L 50 268 L 50 266 Z " /><path fill="rgb(184,189,224)" stroke="rgb(184,189,224)" stroke-width="1" opacity="0.8352941176470589" d="M 56.5 268 L 57.5 270 L 55 269.5 L 56.5 268 Z " /><path fill="rgb(184,189,224)" stroke="rgb(184,189,224)" stroke-width="1" opacity="0.8352941176470589" d="M 59.5 270 L 60.5 272 L 59.5 270 Z " /><path fill="rgb(184,189,224)" stroke="rgb(184,189,224)" stroke-width="1" opacity="0.8352941176470589" d="M 0 358 Q 3 357 2 360 Q -1 361 0 358 Z " /><path fill="rgb(167,105,67)" stroke="rgb(167,105,67)" stroke-width="1" opacity="0.9921568627450981" d="M 102.5 98 L 104 100.5 L 102.5 102 Q 95 101 92 103 L 91 105.5 L 92.5 108 L 88 104.5 L 89 100 Q 92.6 97.7 101.5 99 L 102.5 98 Z " /><path fill="rgb(167,105,67)" stroke="rgb(167,105,67)" stroke-width="1" opacity="0.9921568627450981" d="M 116.5 114 L 119 114.5 L 116.5 115 L 116.5 114 Z " /><path fill="rgb(167,105,67)" stroke="rgb(167,105,67)" stroke-width="1" opacity="0.9921568627450981" d="M 125.5 116 L 128 116.5 L 125.5 117 L 125.5 116 Z " /><path fill="rgb(167,105,67)" stroke="rgb(167,105,67)" stroke-width="1" opacity="0.9921568627450981" d="M 286.5 125 L 290 127.5 Q 293.3 130.7 293 137.5 L 295 139.5 L 297 149.5 L 297 161.5 L 293 173.5 L 290 190.5 L 287 197.5 Q 289.5 199 286 200.5 Q 285.4 205.9 287 208 L 276.5 207 L 275 205.5 L 276 200.5 L 278 198.5 L 277 196 L 279 195.5 L 278 191.5 L 280.5 181 L 281.5 183 L 283 179.5 L 281 179 L 281.5 172 L 282.5 176 L 283 170.5 L 282 168.5 L 283 166.5 L 281 162.5 L 282 161.5 L 283 145.5 L 285.5 143 L 287 142.5 L 287 134.5 L 284 127.5 L 286.5 125 Z M 276 204 L 276 206 L 279 206 L 276 204 Z " /><path fill="rgb(167,105,67)" stroke="rgb(167,105,67)" stroke-width="1" opacity="0.9921568627450981" d="M 271.5 153 L 274.5 157 L 271.5 153 Z " /><path fill="rgb(167,105,67)" stroke="rgb(167,105,67)" stroke-width="1" opacity="0.9921568627450981" d="M 193.5 187 L 200.5 187 L 206 188.5 L 195 189 Q 193.6 193 200.5 191 Q 202 193.5 207.5 192 L 210.5 194 L 220.5 195 L 225.5 198 Q 234.5 198 239.5 202 L 248.5 203 L 259 208.5 L 260 211.5 L 258 218.5 L 258 220.5 L 253 259.5 L 256.5 263 L 265.5 266 L 286.5 266 L 292 265 L 293.5 261 L 293 262.5 Q 292.7 269 290 272 L 274.5 271 L 261.5 268 L 248.5 264 L 243.5 261 L 237.5 260 L 231.5 256 L 219.5 255 L 216.5 253 L 211.5 253 L 208.5 251 Q 202.2 251.8 199.5 249 L 195.5 250 Q 193.8 247.2 188.5 248 L 181 243.5 Q 180.3 241.3 182.5 242 L 184.5 242 L 197.5 241 L 200.5 239 L 207.5 239 L 210.5 240 L 212.5 240 L 215.5 240 L 224 231.5 Q 225.9 226.1 222.5 227 L 220 228 L 220 219.5 L 218 219 L 218 217.5 L 216 212 Q 212.2 212.8 211 209.5 L 211.5 208 Q 207.1 209.5 208 206.5 L 208.5 205 L 203.5 204 L 201.5 204 L 192.5 205 L 181 212 L 180 216 L 176 217.5 L 172.5 222 Q 169.9 221.3 171 224 L 168 224 L 167 215.5 L 168 211 L 170 210.5 L 169.5 209 L 171 208.5 L 170.5 207 L 172 206.5 L 172 204.5 L 171.5 203 L 170 203.5 L 177.5 194 L 185.5 189 L 193.5 187 Z M 176 198 L 172 202 L 173 203 L 177 200 L 176 198 Z " /><path fill="rgb(167,105,67)" stroke="rgb(167,105,67)" stroke-width="1" opacity="0.9921568627450981" d="M 274.5 188 L 275 191.5 L 274 191.5 L 274.5 188 Z " /><path fill="rgb(167,105,67)" stroke="rgb(167,105,67)" stroke-width="1" opacity="0.9921568627450981" d="M 217.5 191 Q 222.3 190.3 224 192.5 L 220.5 193 L 217.5 192 L 217.5 191 Z " /><path fill="rgb(167,105,67)" stroke="rgb(167,105,67)" stroke-width="1" opacity="0.9921568627450981" d="M 228 193 L 237 195.5 L 233.5 196 L 228 195 L 228 193 Z " /><path fill="rgb(167,105,67)" stroke="rgb(167,105,67)" stroke-width="1" opacity="0.9921568627450981" d="M 241.5 195 L 244.5 197 L 244.5 198 L 238 196.5 L 241.5 195 Z " /><path fill="rgb(167,105,67)" stroke="rgb(167,105,67)" stroke-width="1" opacity="0.9921568627450981" d="M 272.5 197 L 273 199.5 L 272 199.5 L 272.5 197 Z " /><path fill="rgb(167,105,67)" stroke="rgb(167,105,67)" stroke-width="1" opacity="0.9921568627450981" d="M 249.5 199 L 252 199.5 L 249.5 200 L 249.5 199 Z " /><path fill="rgb(167,105,67)" stroke="rgb(167,105,67)" stroke-width="1" opacity="0.9921568627450981" d="M 169.5 205 L 168.5 207 L 169.5 205 Z " /><path fill="rgb(167,105,67)" stroke="rgb(167,105,67)" stroke-width="1" opacity="0.9921568627450981" d="M 299.5 205 L 302 206.5 L 300 207 L 300.5 209 L 302 208.5 Q 300.8 211.3 299.5 209 L 291.5 209 L 290 207.5 L 293.5 206 L 295.5 207 L 299.5 205 Z " /><path fill="rgb(167,105,67)" stroke="rgb(167,105,67)" stroke-width="1" opacity="0.9921568627450981" d="M 167.5 208 L 168 209.5 L 166.5 213 L 166 210.5 L 167.5 208 Z " /><path fill="rgb(167,105,67)" stroke="rgb(167,105,67)" stroke-width="1" opacity="0.9921568627450981" d="M 166.5 219 L 168 231.5 L 167 231.5 L 165 224.5 L 166.5 219 Z " /><path fill="rgb(167,105,67)" stroke="rgb(167,105,67)" stroke-width="1" opacity="0.9921568627450981" d="M 296.5 244 Q 298.8 243.3 298 245.5 L 296 246.5 L 296.5 244 Z " /><path fill="rgb(167,105,67)" stroke="rgb(167,105,67)" stroke-width="1" opacity="0.9921568627450981" d="M 293.5 258 L 294 260 L 292 259.5 L 293.5 258 Z " /><path fill="rgb(167,105,67)" stroke="rgb(167,105,67)" stroke-width="1" opacity="0.9921568627450981" d="M 64.5 272 L 68 273 L 67.5 275 L 64.5 272 Z " /><path fill="rgb(167,105,67)" stroke="rgb(167,105,67)" stroke-width="1" opacity="0.9921568627450981" d="M 270.5 272 L 284 273.5 L 281 275.5 Q 281.9 272.1 276.5 274 L 273 276 L 271.5 273 L 269 274.5 L 264 291.5 L 263 305 L 272 308 Q 271.4 315.9 264.5 319 L 265 317.5 Q 266.1 314.2 263.5 315 L 257 312 L 254 302.5 L 254.5 300 Q 257.5 300.9 256 296.5 L 257 291.5 L 260 288.5 L 266 275 L 270.5 272 Z " /><path fill="rgb(167,105,67)" stroke="rgb(167,105,67)" stroke-width="1" opacity="0.9921568627450981" d="M 252.5 274 Q 255.5 273.5 254 280.5 L 252.5 284 L 251.5 281 L 247.5 286 L 246 285.5 L 250 278.5 L 250 275 L 252.5 274 Z " /><path fill="rgb(167,105,67)" stroke="rgb(167,105,67)" stroke-width="1" opacity="0.9921568627450981" d="M 246.5 288 L 248 290.5 L 247 294.5 L 248 294.5 L 249.5 291 L 250 292.5 L 241.5 303 L 238.5 304 Q 236.8 300.9 235 302.5 L 246.5 288 Z " /><path fill="rgb(167,105,67)" stroke="rgb(167,105,67)" stroke-width="1" opacity="0.9921568627450981" d="M 262.5 319 L 261.5 321 L 262.5 319 Z " /><path fill="rgb(104,91,143)" stroke="rgb(104,91,143)" stroke-width="1" opacity="0.996078431372549" d="M 232.5 59 L 239 63.5 L 236.5 64 L 233.5 62 L 228 64 L 226 70 L 222 71 L 222 69 Q 224.7 70.1 224 67.5 L 230 60 L 232.5 59 Z " /><path fill="rgb(104,91,143)" stroke="rgb(104,91,143)" stroke-width="1" opacity="0.996078431372549" d="M 195.5 61 L 202.5 62 L 204.5 62 Q 207.1 61.2 206 64.5 L 206.5 66 L 205 63 L 197 64 L 198 66.5 L 195.5 65 L 191.5 64 L 189.5 65 L 187 63.5 L 195.5 61 Z " /><path fill="rgb(104,91,143)" stroke="rgb(104,91,143)" stroke-width="1" opacity="0.996078431372549" d="M 225.5 61 L 224.5 63 L 225.5 61 Z " /><path fill="rgb(104,91,143)" stroke="rgb(104,91,143)" stroke-width="1" opacity="0.996078431372549" d="M 219.5 64 L 220.5 66 L 223 64.5 L 216.5 69 L 215.5 67 Q 218.8 68.1 218 65.5 L 219.5 64 Z " /><path fill="rgb(104,91,143)" stroke="rgb(104,91,143)" stroke-width="1" opacity="0.996078431372549" d="M 240.5 65 L 242.5 68 L 240 66.5 L 240.5 65 Z " /><path fill="rgb(104,91,143)" stroke="rgb(104,91,143)" stroke-width="1" opacity="0.996078431372549" d="M 228 69 Q 231 68 230 71 Q 227 72 228 69 Z " /><path fill="rgb(104,91,143)" stroke="rgb(104,91,143)" stroke-width="1" opacity="0.996078431372549" d="M 244.5 70 L 245.5 72 Q 242.7 72.7 244.5 70 Z " /><path fill="rgb(104,91,143)" stroke="rgb(104,91,143)" stroke-width="1" opacity="0.996078431372549" d="M 236.5 72 L 239 72.5 L 236.5 73 L 236.5 72 Z " /><path fill="rgb(104,91,143)" stroke="rgb(104,91,143)" stroke-width="1" opacity="0.996078431372549" d="M 248.5 74 L 249 77.5 L 248 77.5 L 248.5 74 Z " /><path fill="rgb(104,91,143)" stroke="rgb(104,91,143)" stroke-width="1" opacity="0.996078431372549" d="M 122.5 75 L 123 79.5 L 122 79.5 L 122.5 75 Z " /><path fill="rgb(104,91,143)" stroke="rgb(104,91,143)" stroke-width="1" opacity="0.996078431372549" d="M 164.5 76 L 163.5 78 L 164.5 76 Z " /><path fill="rgb(104,91,143)" stroke="rgb(104,91,143)" stroke-width="1" opacity="0.996078431372549" d="M 227.5 76 L 229 78.5 L 227 77.5 L 227.5 76 Z " /><path fill="rgb(104,91,143)" stroke="rgb(104,91,143)" stroke-width="1" opacity="0.996078431372549" d="M 234.5 77 Q 237.1 76.3 236 79 L 232 78.5 L 234.5 77 Z " /><path fill="rgb(104,91,143)" stroke="rgb(104,91,143)" stroke-width="1" opacity="0.996078431372549" d="M 240.5 78 L 249 81.5 L 247.5 82 L 243.5 81 L 240.5 78 Z " /><path fill="rgb(104,91,143)" stroke="rgb(104,91,143)" stroke-width="1" opacity="0.996078431372549" d="M 251 78 L 254 79.5 Q 252.9 82.8 255.5 82 L 256.5 81 L 259.5 84 L 263 86.5 L 262 88.5 L 267 94.5 L 265 95 L 265 93.5 L 256.5 85 L 252 81.5 L 251 78 Z " /><path fill="rgb(104,91,143)" stroke="rgb(104,91,143)" stroke-width="1" opacity="0.996078431372549" d="M 157.5 79 L 156.5 81 L 157.5 79 Z " /><path fill="rgb(104,91,143)" stroke="rgb(104,91,143)" stroke-width="1" opacity="0.996078431372549" d="M 188.5 80 L 192 80.5 L 188.5 81 L 188.5 80 Z " /><path fill="rgb(104,91,143)" stroke="rgb(104,91,143)" stroke-width="1" opacity="0.996078431372549" d="M 153.5 81 L 151.5 84 L 148.5 86 L 150.5 83 L 153.5 81 Z " /><path fill="rgb(104,91,143)" stroke="rgb(104,91,143)" stroke-width="1" opacity="0.996078431372549" d="M 200.5 84 L 201.5 86 L 200.5 84 Z " /><path fill="rgb(104,91,143)" stroke="rgb(104,91,143)" stroke-width="1" opacity="0.996078431372549" d="M 127.5 85 L 128 89 L 125 88.5 L 127.5 85 Z " /><path fill="rgb(104,91,143)" stroke="rgb(104,91,143)" stroke-width="1" opacity="0.996078431372549" d="M 142.5 86 L 144 86.5 L 140.5 89 L 142.5 86 Z " /><path fill="rgb(104,91,143)" stroke="rgb(104,91,143)" stroke-width="1" opacity="0.996078431372549" d="M 224.5 86 L 226.5 89 L 224.5 86 Z " /><path fill="rgb(104,91,143)" stroke="rgb(104,91,143)" stroke-width="1" opacity="0.996078431372549" d="M 264.5 88 L 267.5 92 L 264.5 88 Z " /><path fill="rgb(104,91,143)" stroke="rgb(104,91,143)" stroke-width="1" opacity="0.996078431372549" d="M 136.5 89 L 137 91.5 L 136 91.5 L 136.5 89 Z " /><path fill="rgb(104,91,143)" stroke="rgb(104,91,143)" stroke-width="1" opacity="0.996078431372549" d="M 206.5 89 L 208.5 92 L 206.5 89 Z " /><path fill="rgb(104,91,143)" stroke="rgb(104,91,143)" stroke-width="1" opacity="0.996078431372549" d="M 124.5 91 L 126 97.5 L 123 99 L 124.5 91 Z " /><path fill="rgb(104,91,143)" stroke="rgb(104,91,143)" stroke-width="1" opacity="0.996078431372549" d="M 127.5 91 L 128 93 L 126 92.5 L 127.5 91 Z " /><path fill="rgb(104,91,143)" stroke="rgb(104,91,143)" stroke-width="1" opacity="0.996078431372549" d="M 129.5 91 Q 134 90 135 92.5 L 130.5 93 L 129.5 91 Z " /><path fill="rgb(104,91,143)" stroke="rgb(104,91,143)" stroke-width="1" opacity="0.996078431372549" d="M 231.5 92 L 234.5 96 L 231.5 92 Z " /><path fill="rgb(104,91,143)" stroke="rgb(104,91,143)" stroke-width="1" opacity="0.996078431372549" d="M 119.5 93 L 120 95 L 118 94.5 L 119.5 93 Z " /><path fill="rgb(104,91,143)" stroke="rgb(104,91,143)" stroke-width="1" opacity="0.996078431372549" d="M 268.5 94 L 273.5 100 L 275.5 99 L 280 103.5 L 280 106 Q 277.3 104.9 278 107.5 L 271.5 117 Q 267.6 113.4 267 106.5 L 268 106.5 Q 267.2 109.5 271 108 L 268 100.5 L 269 95.5 L 268.5 94 Z " /><path fill="rgb(104,91,143)" stroke="rgb(104,91,143)" stroke-width="1" opacity="0.996078431372549" d="M 213.5 95 L 215.5 98 L 213.5 95 Z " /><path fill="rgb(104,91,143)" stroke="rgb(104,91,143)" stroke-width="1" opacity="0.996078431372549" d="M 120.5 97 L 119.5 99 L 120.5 97 Z " /><path fill="rgb(104,91,143)" stroke="rgb(104,91,143)" stroke-width="1" opacity="0.996078431372549" d="M 237.5 97 L 238.5 99 L 237.5 97 Z " /><path fill="rgb(104,91,143)" stroke="rgb(104,91,143)" stroke-width="1" opacity="0.996078431372549" d="M 219.5 100 Q 221.3 103.1 223 101.5 L 221.5 103 L 219.5 100 Z " /><path fill="rgb(104,91,143)" stroke="rgb(104,91,143)" stroke-width="1" opacity="0.996078431372549" d="M 118.5 102 L 119 104.5 L 118 104.5 L 118.5 102 Z " /><path fill="rgb(104,91,143)" stroke="rgb(104,91,143)" stroke-width="1" opacity="0.996078431372549" d="M 107.5 107 L 108 108.5 L 106 109.5 L 107.5 107 Z " /><path fill="rgb(104,91,143)" stroke="rgb(104,91,143)" stroke-width="1" opacity="0.996078431372549" d="M 172.5 107 L 171.5 109 L 172.5 107 Z " /><path fill="rgb(104,91,143)" stroke="rgb(104,91,143)" stroke-width="1" opacity="0.996078431372549" d="M 251.5 109 L 253.5 112 L 251.5 109 Z " /><path fill="rgb(104,91,143)" stroke="rgb(104,91,143)" stroke-width="1" opacity="0.996078431372549" d="M 162.5 110 L 161.5 112 L 162.5 110 Z " /><path fill="rgb(104,91,143)" stroke="rgb(104,91,143)" stroke-width="1" opacity="0.996078431372549" d="M 159.5 114 L 159 115.5 L 156.5 119 Q 154.3 118.3 155 120.5 L 157.5 121 L 160 121.5 L 157 122.5 L 157.5 124 L 153 120.5 L 158 116.5 L 159.5 114 Z " /><path fill="rgb(104,91,143)" stroke="rgb(104,91,143)" stroke-width="1" opacity="0.996078431372549" d="M 167.5 115 L 164.5 119 L 167.5 115 Z " /><path fill="rgb(104,91,143)" stroke="rgb(104,91,143)" stroke-width="1" opacity="0.996078431372549" d="M 94.5 123 Q 99.5 122.5 100 126.5 L 99 147.5 L 96 155.5 L 97 157.5 L 92 167.5 L 93 168.5 L 93 179.5 L 91 182.5 L 91 194 L 94 194.5 L 94 207.5 Q 97.3 206.7 96 212 L 106 212 L 106 210 L 112 210 Q 110.8 213.7 116 212 L 116 208 L 120 208 Q 118 202 124 204 L 124.5 206 L 128 204 L 128 200 L 134.5 200 L 139 199 L 139.5 197 Q 141 199.5 142.5 196 L 152 195 Q 150.6 191 157.5 193 L 158.5 192 L 169.5 192 L 171 195.5 L 168.5 200 L 168 198 Q 164.6 197.3 163.5 200 L 161.5 200 Q 155.5 198.5 154 201.5 Q 154.9 204.5 150.5 203 L 147 205 Q 148.1 207.7 145.5 207 L 143 208 Q 144.1 210.7 141.5 210 L 136.5 216 L 134 217.5 L 132.5 220 L 130 221.5 Q 131.5 225.9 128.5 225 L 126 226 L 125 232 L 123 232 L 123 236 L 121 236 Q 122.7 241.2 119 240 L 119 248 L 116 248.5 L 116 264 Q 121.6 262.1 120 267 L 114.5 269 L 112 268 Q 113.8 263.5 108.5 265 L 105.5 264 L 102.5 268 Q 98.8 268.8 98 266.5 L 97.5 265 L 86.5 265 L 83.5 266 L 78 264 L 78 260 L 76.5 260 L 75 258.5 L 74 248 L 72 247.5 L 72 237.5 Q 75.3 236.1 74 231 L 79 230 L 78 224.5 L 79 222.5 L 78 220.5 L 80 216.5 Q 76.8 215 78 210 L 75 211.5 L 74 220.5 L 75 223.5 L 72 226.5 L 71 236.5 L 69 240.5 L 70 243.5 L 69 246 L 67 246.5 L 67 254.5 Q 64.4 255.9 65 260.5 L 62.5 263 L 60.5 264 Q 57.6 261.4 51.5 262 L 48.5 260 L 50.5 264 L 46 257.5 L 47 254 Q 49.7 255.1 49 252.5 L 48 249 Q 52 250.4 50 243.5 L 51 241.5 L 50 239.5 Q 53.5 238 51 236.5 L 51.5 235 L 54 240.5 L 52 243.5 L 53 247 Q 50.3 245.9 51 248.5 L 52 249.5 L 52 259.5 L 53.5 261 L 59.5 262 L 63 258.5 L 65 246.5 L 67 243.5 L 67 237.5 L 69 234.5 Q 67.8 229.7 70 228.5 L 70 221.5 L 75 207.5 L 75 199.5 L 78 196.5 L 80 178.5 L 82 175.5 L 83 169.5 L 83 167.5 L 84 159.5 L 88 148.5 L 90 131.5 Q 92.6 130.1 92 125.5 L 94.5 123 Z M 91 133 L 89 154 Q 92 155 91 152 L 94 150 L 93 148 L 93 134 L 91 133 Z M 82 185 L 82 188 L 84 187 Q 85 184 82 185 Z " /><path fill="rgb(104,91,143)" stroke="rgb(104,91,143)" stroke-width="1" opacity="0.996078431372549" d="M 262.5 132 L 263 133.5 Q 258.6 137.6 258 144 L 263.5 146 Q 264.6 143.2 268 144 L 269.5 141 L 272.5 139 L 265.5 147 L 257 146 Q 258.1 143.3 255.5 144 L 258 140.5 L 262.5 132 Z " /><path fill="rgb(104,91,143)" stroke="rgb(104,91,143)" stroke-width="1" opacity="0.996078431372549" d="M 95.5 169 L 96 175.5 L 95 175.5 L 95.5 169 Z " /><path fill="rgb(104,91,143)" stroke="rgb(104,91,143)" stroke-width="1" opacity="0.996078431372549" d="M 59.5 207 Q 62.3 208.3 60 209.5 L 58.5 214 L 58 208.5 L 59.5 207 Z " /><path fill="rgb(104,91,143)" stroke="rgb(104,91,143)" stroke-width="1" opacity="0.996078431372549" d="M 188.5 208 L 190 208.5 L 188 212 L 185.5 213 L 187 210.5 L 188.5 208 Z " /><path fill="rgb(104,91,143)" stroke="rgb(104,91,143)" stroke-width="1" opacity="0.996078431372549" d="M 182.5 218 L 183 223.5 L 182 223.5 L 182.5 218 Z " /><path fill="rgb(104,91,143)" stroke="rgb(104,91,143)" stroke-width="1" opacity="0.996078431372549" d="M 57.5 219 L 58 224.5 Q 55 227 55.5 233 Q 53 228.3 54 221 L 57.5 219 Z " /><path fill="rgb(104,91,143)" stroke="rgb(104,91,143)" stroke-width="1" opacity="0.996078431372549" d="M 187.5 219 Q 190.8 217.9 190 220.5 L 190.5 222 L 187.5 219 Z " /><path fill="rgb(104,91,143)" stroke="rgb(104,91,143)" stroke-width="1" opacity="0.996078431372549" d="M 186.5 222 L 187 223.5 L 184.5 227 L 184 225.5 L 186.5 222 Z " /><path fill="rgb(104,91,143)" stroke="rgb(104,91,143)" stroke-width="1" opacity="0.996078431372549" d="M 204.5 233 L 205.5 235 Q 202.7 235.7 204.5 233 Z " /><path fill="rgb(104,91,143)" stroke="rgb(104,91,143)" stroke-width="1" opacity="0.996078431372549" d="M 120 268 L 128 268 L 128 271.5 L 126.5 271 L 120 271 L 120 268 Z " /><path fill="rgb(104,91,143)" stroke="rgb(104,91,143)" stroke-width="1" opacity="0.996078431372549" d="M 246.5 273 L 246 274.5 L 241 282.5 L 239 294.5 Q 241.3 295.7 238.5 297 L 233 299 L 234 288 L 236 288 L 236 283 L 239.5 283 L 243.5 276 Q 245.8 276.8 245 274.5 L 246.5 273 Z " /><path fill="rgb(77,99,114)" stroke="rgb(77,99,114)" stroke-width="1" opacity="0.996078431372549" d="M 229.5 56 L 227.5 59 L 229.5 56 Z " /><path fill="rgb(77,99,114)" stroke="rgb(77,99,114)" stroke-width="1" opacity="0.996078431372549" d="M 194.5 59 L 201.5 61 L 203.5 60 L 202.5 62 L 195.5 61 L 184.5 64 L 182 62.5 L 185.5 62 L 187.5 62 L 194.5 59 Z " /><path fill="rgb(77,99,114)" stroke="rgb(77,99,114)" stroke-width="1" opacity="0.996078431372549" d="M 235.5 59 L 259.5 84 L 255 80.5 L 254.5 82 L 252.5 78 Q 250.3 77.3 251 79.5 L 252 81.5 L 251 82.5 L 256.5 88 L 265 95.5 L 266 101.5 Q 263.1 105.1 264 112.5 L 268 117.5 L 268 119.5 Q 267.3 121.8 263.5 121 L 261 120.5 L 260 117.5 L 251.5 109 L 248 106.5 Q 248.8 104.3 246.5 105 L 244 104 Q 245.1 101.3 242.5 102 L 239 100 L 237.5 97 L 214 78.5 L 220 74.5 L 219.5 73 L 222.5 71 L 224 71.5 L 226 68.5 Q 228.8 67.4 228 64 L 233.5 62 L 238.5 64 L 235.5 59 Z M 241 65 L 240 67 L 243 68 L 241 65 Z M 228 69 Q 227 72 230 71 Q 231 68 228 69 Z M 245 70 Q 243 73 246 72 L 245 70 Z M 226 72 L 221 74 L 230 79 L 232 79 L 235 80 Q 239 81 241 79 L 247 82 L 249 82 L 247 80 L 244 76 L 234 78 Q 227 79 226 75 L 229 76 L 228 73 L 226 72 Z M 237 72 L 237 73 L 239 73 L 237 72 Z M 249 74 L 248 78 L 249 78 L 249 74 Z " /><path fill="rgb(77,99,114)" stroke="rgb(77,99,114)" stroke-width="1" opacity="0.996078431372549" d="M 220.5 61 L 225 61.5 L 224 64 L 220.5 66 L 219.5 64 L 218 67 L 215.5 67 L 208.5 73 L 211 69.5 L 214.5 64 L 215.5 66 L 216 64 L 220.5 61 Z " /><path fill="rgb(77,99,114)" stroke="rgb(77,99,114)" stroke-width="1" opacity="0.996078431372549" d="M 175.5 63 L 182 66.5 L 175 74.5 L 176.5 80 L 179 78.5 Q 176.8 83.3 174.5 79 Q 172.3 78.3 173 80.5 L 171.5 80 L 169.5 81 Q 168 78.5 166.5 82 L 162 83 L 160.5 86 L 147 95.5 L 140.5 105 L 138 104 Q 139.3 107 135.5 106 L 132.5 109 Q 131.3 106.8 130 109.5 Q 130.8 111.8 128.5 111 Q 125.3 112.2 126 116 L 116 113.5 L 120 104 Q 122.7 105.1 122 102.5 L 121.5 101 L 123.5 101 L 126 99.5 Q 125.3 95.8 127.5 95 L 130.5 96 L 132.5 94 L 139 93 L 141.5 89 L 149.5 86 L 154.5 81 L 161.5 79 L 168.5 74 L 170.5 74 L 173.5 75 L 174 71.5 L 173.5 70 L 177 68.5 L 175.5 63 Z " /><path fill="rgb(77,99,114)" stroke="rgb(77,99,114)" stroke-width="1" opacity="0.996078431372549" d="M 119.5 66 L 120 68.5 L 118.5 73 Q 115.8 71.8 118 70.5 L 119.5 66 Z " /><path fill="rgb(77,99,114)" stroke="rgb(77,99,114)" stroke-width="1" opacity="0.996078431372549" d="M 141.5 66 L 140.5 68 L 139 67.5 L 141.5 66 Z " /><path fill="rgb(77,99,114)" stroke="rgb(77,99,114)" stroke-width="1" opacity="0.996078431372549" d="M 128.5 68 Q 130.8 67.3 130 69.5 L 127 70.5 L 125 81.5 L 126 83.5 L 125 83.5 L 124.5 82 L 122 94.5 L 119 98.5 L 120 102 L 118 102 L 118 107 L 116.5 107 L 115 107.5 L 116 102.5 L 118 100.5 L 118 98.5 L 119 96.5 L 118.5 95 Q 120.8 95.8 120 93.5 L 119 90.5 L 121 88.5 L 121 83.5 L 124 73.5 L 123 71.5 L 125 70.5 L 125.5 72 L 128.5 68 Z " /><path fill="rgb(77,99,114)" stroke="rgb(77,99,114)" stroke-width="1" opacity="0.996078431372549" d="M 185.5 69 L 184.5 71 L 185.5 69 Z " /><path fill="rgb(77,99,114)" stroke="rgb(77,99,114)" stroke-width="1" opacity="0.996078431372549" d="M 126.5 78 L 127 80.5 L 126 80.5 L 126.5 78 Z " /><path fill="rgb(77,99,114)" stroke="rgb(77,99,114)" stroke-width="1" opacity="0.996078431372549" d="M 194.5 81 L 199 83.5 L 197.5 83 Q 193.8 82.8 194.5 81 Z " /><path fill="rgb(77,99,114)" stroke="rgb(77,99,114)" stroke-width="1" opacity="0.996078431372549" d="M 115.5 82 L 116 84.5 L 115 84.5 L 115.5 82 Z " /><path fill="rgb(77,99,114)" stroke="rgb(77,99,114)" stroke-width="1" opacity="0.996078431372549" d="M 174.5 82 L 176 82.5 L 171 86.5 L 174.5 82 Z " /><path fill="rgb(77,99,114)" stroke="rgb(77,99,114)" stroke-width="1" opacity="0.996078431372549" d="M 186.5 82 L 188 82.5 L 185.5 84 L 186.5 82 Z " /><path fill="rgb(77,99,114)" stroke="rgb(77,99,114)" stroke-width="1" opacity="0.996078431372549" d="M 204.5 85 L 205.5 87 L 204.5 85 Z " /><path fill="rgb(77,99,114)" stroke="rgb(77,99,114)" stroke-width="1" opacity="0.996078431372549" d="M 202.5 86 L 203.5 88 L 202.5 86 Z " /><path fill="rgb(77,99,114)" stroke="rgb(77,99,114)" stroke-width="1" opacity="0.996078431372549" d="M 124.5 87 L 126 89.5 L 124 90 L 124.5 87 Z " /><path fill="rgb(77,99,114)" stroke="rgb(77,99,114)" stroke-width="1" opacity="0.996078431372549" d="M 264.5 87 L 271.5 95 L 264.5 87 Z " /><path fill="rgb(77,99,114)" stroke="rgb(77,99,114)" stroke-width="1" opacity="0.996078431372549" d="M 123.5 92 L 124 94.5 L 123 94.5 L 123.5 92 Z " /><path fill="rgb(77,99,114)" stroke="rgb(77,99,114)" stroke-width="1" opacity="0.996078431372549" d="M 166.5 92 L 167 93.5 L 161 98.5 L 166.5 92 Z " /><path fill="rgb(77,99,114)" stroke="rgb(77,99,114)" stroke-width="1" opacity="0.996078431372549" d="M 209.5 92 L 210.5 94 L 209.5 92 Z " /><path fill="rgb(77,99,114)" stroke="rgb(77,99,114)" stroke-width="1" opacity="0.996078431372549" d="M 213.5 93 L 214.5 95 L 213.5 93 Z " /><path fill="rgb(77,99,114)" stroke="rgb(77,99,114)" stroke-width="1" opacity="0.996078431372549" d="M 176.5 94 L 177 96 L 175 95.5 L 176.5 94 Z " /><path fill="rgb(77,99,114)" stroke="rgb(77,99,114)" stroke-width="1" opacity="0.996078431372549" d="M 180.5 95 L 179 97.5 L 173.5 107 Q 170.9 107.8 172 104.5 L 176 100.5 Q 173.8 99.3 176.5 98 L 180.5 95 Z " /><path fill="rgb(77,99,114)" stroke="rgb(77,99,114)" stroke-width="1" opacity="0.996078431372549" d="M 111.5 96 L 112 99 L 114 99.5 Q 110.5 100 111 104.5 L 112 106.5 L 111.5 108 L 113 108.5 L 110.5 113 L 107.5 111 L 105.5 112 Q 107.2 109.7 103 107.5 L 103.5 105 L 106.5 110 L 108 108.5 L 111.5 96 Z " /><path fill="rgb(77,99,114)" stroke="rgb(77,99,114)" stroke-width="1" opacity="0.996078431372549" d="M 122.5 96 L 123 99.5 L 122 99.5 L 122.5 96 Z " /><path fill="rgb(77,99,114)" stroke="rgb(77,99,114)" stroke-width="1" opacity="0.996078431372549" d="M 273.5 96 L 279.5 103 L 273.5 96 Z " /><path fill="rgb(77,99,114)" stroke="rgb(77,99,114)" stroke-width="1" opacity="0.996078431372549" d="M 172.5 98 L 174 98.5 L 171.5 100 L 172.5 98 Z " /><path fill="rgb(77,99,114)" stroke="rgb(77,99,114)" stroke-width="1" opacity="0.996078431372549" d="M 197.5 98 L 199 98.5 L 196.5 100 L 197.5 98 Z " /><path fill="rgb(77,99,114)" stroke="rgb(77,99,114)" stroke-width="1" opacity="0.996078431372549" d="M 160.5 100 L 156.5 105 L 160.5 100 Z " /><path fill="rgb(77,99,114)" stroke="rgb(77,99,114)" stroke-width="1" opacity="0.996078431372549" d="M 171.5 101 L 169.5 104 L 167 105.5 L 167.5 107 L 164.5 109 L 165 107.5 L 169.5 102 L 171.5 101 Z " /><path fill="rgb(77,99,114)" stroke="rgb(77,99,114)" stroke-width="1" opacity="0.996078431372549" d="M 222.5 103 L 223.5 105 L 222.5 103 Z " /><path fill="rgb(77,99,114)" stroke="rgb(77,99,114)" stroke-width="1" opacity="0.996078431372549" d="M 226.5 104 L 228.5 107 L 226.5 104 Z " /><path fill="rgb(77,99,114)" stroke="rgb(77,99,114)" stroke-width="1" opacity="0.996078431372549" d="M 268 104 L 271 105.5 Q 272.1 109.7 268 108 L 268 104 Z " /><path fill="rgb(77,99,114)" stroke="rgb(77,99,114)" stroke-width="1" opacity="0.996078431372549" d="M 278 106 L 280 106.5 L 277 112 L 274.5 113 L 275 111.5 L 278 106 Z " /><path fill="rgb(77,99,114)" stroke="rgb(77,99,114)" stroke-width="1" opacity="0.996078431372549" d="M 154.5 107 L 152.5 110 L 154.5 107 Z " /><path fill="rgb(77,99,114)" stroke="rgb(77,99,114)" stroke-width="1" opacity="0.996078431372549" d="M 170.5 108 L 173 108.5 L 159.5 124 L 157 122.5 L 160 121.5 Q 157.5 120 161 118.5 L 159 116.5 L 163.5 110 L 164 111.5 Q 158.8 113.8 162.5 116 Q 167.5 116.5 168 112.5 Q 167.5 108.5 170.5 108 Z " /><path fill="rgb(77,99,114)" stroke="rgb(77,99,114)" stroke-width="1" opacity="0.996078431372549" d="M 228.5 108 L 230.5 111 L 228.5 108 Z " /><path fill="rgb(77,99,114)" stroke="rgb(77,99,114)" stroke-width="1" opacity="0.996078431372549" d="M 151.5 111 L 148.5 115 L 151.5 111 Z " /><path fill="rgb(77,99,114)" stroke="rgb(77,99,114)" stroke-width="1" opacity="0.996078431372549" d="M 234.5 113 L 236.5 116 L 234.5 113 Z " /><path fill="rgb(77,99,114)" stroke="rgb(77,99,114)" stroke-width="1" opacity="0.996078431372549" d="M 273.5 114 L 276 115 L 272 122 L 269.5 123 L 270 121.5 L 273.5 114 Z " /><path fill="rgb(77,99,114)" stroke="rgb(77,99,114)" stroke-width="1" opacity="0.996078431372549" d="M 147.5 116 L 147 117.5 L 148.5 120 L 151 120.5 L 146.5 121 L 145 118.5 L 147.5 116 Z " /><path fill="rgb(77,99,114)" stroke="rgb(77,99,114)" stroke-width="1" opacity="0.996078431372549" d="M 156.5 119 L 155.5 121 L 156.5 119 Z " /><path fill="rgb(77,99,114)" stroke="rgb(77,99,114)" stroke-width="1" opacity="0.996078431372549" d="M 247.5 122 L 249.5 125 L 247.5 122 Z " /><path fill="rgb(77,99,114)" stroke="rgb(77,99,114)" stroke-width="1" opacity="0.996078431372549" d="M 268 124 L 270 124.5 L 268 125.5 L 268 124 Z " /><path fill="rgb(77,99,114)" stroke="rgb(77,99,114)" stroke-width="1" opacity="0.996078431372549" d="M 266.5 126 L 267 127.5 L 262.5 135 L 263 133.5 L 266.5 126 Z " /><path fill="rgb(77,99,114)" stroke="rgb(77,99,114)" stroke-width="1" opacity="0.996078431372549" d="M 249.5 129 L 247.5 132 Q 246.2 129.8 245 132.5 Q 247.3 133.8 244.5 135 L 243.5 134 L 241 135.5 L 246.5 130 Q 248 132.5 249.5 129 Z " /><path fill="rgb(77,99,114)" stroke="rgb(77,99,114)" stroke-width="1" opacity="0.996078431372549" d="M 278.5 133 L 273.5 139 L 278.5 133 Z " /><path fill="rgb(77,99,114)" stroke="rgb(77,99,114)" stroke-width="1" opacity="0.996078431372549" d="M 261.5 136 L 262 137.5 L 260 144 Q 257.3 145.1 258 142.5 L 261.5 136 Z " /><path fill="rgb(77,99,114)" stroke="rgb(77,99,114)" stroke-width="1" opacity="0.996078431372549" d="M 236.5 139 L 237 141 L 239 141.5 L 237.5 142 L 235 140.5 L 236.5 139 Z " /><path fill="rgb(77,99,114)" stroke="rgb(77,99,114)" stroke-width="1" opacity="0.996078431372549" d="M 271.5 141 L 270.5 143 L 271.5 141 Z " /><path fill="rgb(77,99,114)" stroke="rgb(77,99,114)" stroke-width="1" opacity="0.996078431372549" d="M 253.5 144 L 256 144.5 L 253.5 145 L 253.5 144 Z " /><path fill="rgb(77,99,114)" stroke="rgb(77,99,114)" stroke-width="1" opacity="0.996078431372549" d="M 187.5 208 L 187 209.5 L 183.5 215 L 184 213.5 L 184 211 Q 186.7 212.1 186 209.5 L 187.5 208 Z " /><path fill="rgb(77,99,114)" stroke="rgb(77,99,114)" stroke-width="1" opacity="0.996078431372549" d="M 152.5 211 Q 156.3 210.3 157 212.5 L 160 229 L 163 230.5 Q 162.4 235.6 165.5 237 Q 169.3 235.8 168 239.5 L 166.5 241 L 164 239.5 Q 164.5 243.5 161.5 244 L 156 243 L 156 236.5 L 154 236 Q 155.7 241.2 152 240 L 152.5 231 L 154 231.5 Q 155 226.5 152 227.5 L 152 220.5 Q 150.8 218 147 219 Q 147.7 223.2 144 224.5 L 143 235.5 L 142 236.5 L 144 239.5 Q 141.8 240.8 144.5 242 L 147 242 L 147 244 Q 150 243 149 246 L 152 246 L 152 248 L 155 248 L 155 250 Q 161.3 248.5 160.5 252 L 167 252 L 167 253.5 L 168 256 Q 171 255 170 258 L 175 258 L 175.5 256 L 176 258 L 179 258 Q 177.9 260.7 180.5 260 L 188.5 265 L 197.5 267 L 205.5 267 L 215.5 272 L 235.5 273 L 238.5 272 L 242 272.5 L 235.5 275 L 221.5 276 L 218.5 275 L 212 274 L 211.5 276 L 211 274 L 201.5 274 L 200.5 273 L 198.5 273 L 185.5 270 L 177.5 266 L 170.5 266 L 168.5 264 Q 162.8 264.7 160.5 262 L 158.5 263 L 154.5 260 L 146 258 Q 147 255 144 256 L 144 253 L 141.5 253 L 140 250 Q 136.7 251.3 138 246.5 L 136 236.5 L 137 232 L 140 230.5 L 140 224 L 144 222 L 144 218 L 145.5 218 L 152.5 211 Z " /><path fill="rgb(77,99,114)" stroke="rgb(77,99,114)" stroke-width="1" opacity="0.996078431372549" d="M 210.5 212 L 211.5 214 L 210.5 212 Z " /><path fill="rgb(77,99,114)" stroke="rgb(77,99,114)" stroke-width="1" opacity="0.996078431372549" d="M 181.5 219 L 182 224 Q 185 222.8 184 226.5 L 186 225.5 L 187.5 220 L 190.5 222 L 190 220.5 Q 189.2 217.9 192.5 219 L 195 225 L 205 232.5 L 204 235 Q 209 234.4 211.5 230 L 211 231.5 L 207.5 236 L 202.5 238 L 192 233.5 Q 192.5 230.5 185.5 232 Q 180 228.1 181.5 219 Z " /><path fill="rgb(77,99,114)" stroke="rgb(77,99,114)" stroke-width="1" opacity="0.996078431372549" d="M 213.5 219 L 214 225.5 L 213 225.5 L 213.5 219 Z " /><path fill="rgb(77,99,114)" stroke="rgb(77,99,114)" stroke-width="1" opacity="0.996078431372549" d="M 52.5 263 L 57 265.5 Q 55.3 268.8 53.5 265 Q 50.7 265.7 52.5 263 Z " /><path fill="rgb(77,99,114)" stroke="rgb(77,99,114)" stroke-width="1" opacity="0.996078431372549" d="M 58.5 265 L 71.5 265 L 83.5 270 L 92.5 270 L 100.5 273 L 107.5 273 L 110.5 275 L 116.5 275 L 126.5 279 L 136.5 279 L 138.5 281 L 143.5 281 L 150.5 284 Q 152 281.5 153.5 285 L 172.5 288 L 174.5 290 L 180.5 290 L 191.5 294 L 197.5 294 L 220.5 301 L 231 301.5 L 219.5 302 L 213.5 300 L 211.5 300 L 204.5 299 L 199.5 296 L 193.5 296 L 186.5 293 L 176.5 292 L 164.5 288 L 159.5 288 L 156.5 286 L 150.5 286 Q 143.2 281.8 131.5 282 L 128.5 280 Q 118.9 279.6 112.5 276 L 106.5 276 L 98.5 273 L 91.5 273 L 89.5 271 L 78.5 270 L 72.5 267 L 58.5 266 L 58.5 265 Z " /><path fill="rgb(122,71,48)" stroke="rgb(122,71,48)" stroke-width="1" opacity="0.9647058823529412" d="M 103.5 101 L 104 103 L 96.5 103 L 96 104.5 L 93 105.5 L 94 107.5 L 91 105.5 L 92 103 L 103.5 101 Z " /><path fill="rgb(122,71,48)" stroke="rgb(122,71,48)" stroke-width="1" opacity="0.9647058823529412" d="M 283.5 128 Q 288.6 132.7 287 143 L 283 145.5 L 282 161.5 L 281 162.5 L 284 169.5 L 282.5 176 L 281 166.5 L 279 163.5 L 279 157.5 L 280 156.5 L 280 143.5 L 283 134.5 L 282 132.5 L 283 130.5 Q 280.8 129.3 283.5 128 Z " /><path fill="rgb(122,71,48)" stroke="rgb(122,71,48)" stroke-width="1" opacity="0.9647058823529412" d="M 275.5 157 L 276.5 159 L 275.5 157 Z " /><path fill="rgb(122,71,48)" stroke="rgb(122,71,48)" stroke-width="1" opacity="0.9647058823529412" d="M 281 179 L 283 179.5 L 281.5 183 L 281 179 Z " /><path fill="rgb(122,71,48)" stroke="rgb(122,71,48)" stroke-width="1" opacity="0.9647058823529412" d="M 175.5 201 L 173.5 204 L 175.5 201 Z " /><path fill="rgb(122,71,48)" stroke="rgb(122,71,48)" stroke-width="1" opacity="0.9647058823529412" d="M 169.5 203 L 168.5 205 L 169.5 203 Z " /><path fill="rgb(122,71,48)" stroke="rgb(122,71,48)" stroke-width="1" opacity="0.9647058823529412" d="M 198.5 204 L 202.5 205 L 204.5 205 L 209 205.5 L 208 208 Q 211.8 207 213 209.5 Q 210.8 210.8 213.5 212 Q 217.3 210.8 216 214.5 L 218 219 L 220 219 L 220 227.5 L 221.5 228 L 224 227 L 224 231.5 L 215.5 240 L 211.5 239 L 208.5 240 Q 206.8 237.3 200.5 239 L 197.5 241 Q 188.5 240 183.5 243 L 181 242 L 182.5 245 L 188.5 248 L 198.5 250 L 200.5 249 L 203.5 251 L 208.5 251 L 219.5 255 L 231.5 256 L 237.5 260 L 243.5 261 L 248.5 264 L 261.5 268 L 274.5 271 L 284 271 L 283.5 273 L 272.5 273 L 270.5 272 L 266 275 L 260 288.5 L 257 291.5 L 256 300 L 254 300.5 L 255 303.5 Q 254.4 309.7 257 312 L 265 315 L 263.5 319 Q 261.3 322 256 321 L 254.5 318 Q 249.9 311.6 236.5 314 Q 235 316.5 229.5 315 Q 227.3 312.3 222 312.5 L 229.5 311 L 231.5 311 Q 241.3 312.8 244 307.5 L 244 304.5 L 248 300.5 Q 247.1 295.1 249.5 293 L 251 293.5 L 250 290.5 Q 252.8 288.5 252 284 Q 255.7 285.5 255 282.5 L 261.5 276 L 270 271.5 L 239.5 263 L 235.5 263 L 231.5 261 L 227.5 261 L 216.5 257 L 210.5 257 L 207.5 255 L 202.5 255 L 187.5 251 L 176.5 247 L 169 239.5 Q 165.5 235 165 227.5 L 166 227.5 L 166.5 230 L 167.5 217 L 168 224 L 171 224 Q 169.9 221.3 172.5 222 L 177.5 216 Q 180.8 217.1 180 214.5 L 181 212 L 184.5 210 L 182 213.5 L 176 220.5 L 175 232.5 Q 176.3 235.2 177.5 233 L 181.5 234 L 183 233.5 L 184.5 237 Q 189.8 236.2 191.5 239 L 199.5 239 L 206.5 237 L 213 232 L 212 228.5 L 215 227.5 L 215 218.5 Q 212.8 211.8 207.5 208 Q 204.5 205 198.5 205 L 198.5 204 Z " /><path fill="rgb(122,71,48)" stroke="rgb(122,71,48)" stroke-width="1" opacity="0.9647058823529412" d="M 276 204 L 279 205.5 L 276 206 L 276 204 Z " /><path fill="rgb(122,71,48)" stroke="rgb(122,71,48)" stroke-width="1" opacity="0.9647058823529412" d="M 167.5 207 L 167 208.5 L 165.5 212 L 165 210.5 L 167.5 207 Z " /><path fill="rgb(122,71,48)" stroke="rgb(122,71,48)" stroke-width="1" opacity="0.9647058823529412" d="M 61.5 270 L 65 271.5 Q 62.8 272.8 65.5 274 L 67.5 275 L 68 273 L 72 273 Q 70.9 275.7 73.5 275 L 83 279 Q 81.9 281.7 84.5 281 L 84.5 282 L 70.5 279 L 68.5 279 L 62 273.5 L 61.5 270 Z " /><path fill="rgb(122,71,48)" stroke="rgb(122,71,48)" stroke-width="1" opacity="0.9647058823529412" d="M 251 273 Q 257.4 270.7 255 278.5 L 254 278.5 Q 255.9 273.1 252.5 274 L 251 274.5 L 251 273 Z " /><path fill="rgb(122,71,48)" stroke="rgb(122,71,48)" stroke-width="1" opacity="0.9647058823529412" d="M 72.5 281 L 76 282.5 L 74.5 283 L 72.5 281 Z " /><path fill="rgb(122,71,48)" stroke="rgb(122,71,48)" stroke-width="1" opacity="0.9647058823529412" d="M 79.5 283 L 83 284.5 L 80.5 285 L 79.5 283 Z " /><path fill="rgb(122,71,48)" stroke="rgb(122,71,48)" stroke-width="1" opacity="0.9647058823529412" d="M 84.5 285 L 91 286.5 L 88.5 287 L 84.5 286 L 84.5 285 Z " /><path fill="rgb(122,71,48)" stroke="rgb(122,71,48)" stroke-width="1" opacity="0.9647058823529412" d="M 96.5 288 L 99 288.5 L 96.5 289 L 96.5 288 Z " /><path fill="rgb(122,71,48)" stroke="rgb(122,71,48)" stroke-width="1" opacity="0.9647058823529412" d="M 100.5 289 L 103 289.5 L 100.5 290 L 100.5 289 Z " /><path fill="rgb(122,71,48)" stroke="rgb(122,71,48)" stroke-width="1" opacity="0.9647058823529412" d="M 237.5 298 L 236 300.5 L 238.5 304 Q 244.3 302.7 246.5 298 L 241.5 304 Q 237.6 307.3 230 306 Q 228.9 303.3 231.5 304 L 237.5 298 Z " /><path fill="rgb(122,71,48)" stroke="rgb(122,71,48)" stroke-width="1" opacity="0.9647058823529412" d="M 197.5 312 L 200 312.5 L 197.5 313 L 197.5 312 Z " /><path fill="rgb(122,71,48)" stroke="rgb(122,71,48)" stroke-width="1" opacity="0.9647058823529412" d="M 253.5 322 L 256 322.5 L 253.5 323 L 253.5 322 Z " /><path fill="rgb(230,169,121)" stroke="rgb(230,169,121)" stroke-width="1" opacity="0.9607843137254902" d="M 91.5 96 L 92.5 97 L 105 97 Q 106.1 99.7 103.5 99 L 101.5 99 Q 92.6 97.7 89 100 L 88 104.5 L 94.5 109 L 111.5 114 L 133.5 118 L 145.5 122 L 151.5 122 L 155.5 124 L 162.5 124 L 166.5 126 L 180.5 128 L 183.5 130 L 188.5 130 L 192.5 132 L 206.5 134 L 208.5 136 L 215.5 136 L 243.5 144 L 258.5 146 L 272 154.5 L 272.5 157 L 274 156.5 L 273 160 L 275 160 Q 273.9 162.7 276.5 162 L 278 161.5 L 277 165.5 L 279 166.5 L 279.5 165 Q 282.8 170.2 281 180.5 L 275 205.5 L 276.5 207 L 287 208 Q 285.4 205.9 286 200.5 L 288 196.5 L 292 182.5 L 293 173.5 L 297 161.5 L 297 149.5 L 292 130.5 L 287.5 125 L 286 124.5 L 289.5 120 L 294.5 121 L 300 124 Q 298.8 127 302.5 126 L 312 137.5 L 315 148.5 L 315 157.5 L 311 168.5 L 311 172.5 L 302 206 Q 304.7 204.9 304 207.5 L 307 209 L 308 212.5 L 306 217.5 L 304 230.5 L 302 234.5 L 302 238.5 L 300 241.5 L 300 243.5 L 295 264.5 L 290.5 271 L 292 268.5 Q 293.8 262.8 287.5 265 L 286.5 266 L 265.5 266 L 256.5 263 L 253 259.5 L 254 246.5 L 256 241.5 L 257 224.5 L 259 219.5 L 259 217.5 L 260 210.5 L 257.5 207 L 250.5 205 L 248.5 203 L 243.5 203 L 233.5 199 L 225.5 198 L 220.5 195 L 210.5 194 L 207.5 192 L 195 191 L 195.5 189 L 209.5 189 L 220.5 193 L 237.5 196 L 249.5 200 L 263.5 202 L 268 204 L 269.5 201 L 271.5 204 L 273 197.5 L 271 197.5 L 272 191 L 274.5 192 L 275 188.5 L 273 188.5 L 276 177.5 L 276 169.5 L 268 156 L 262.5 152 Q 257.9 152.6 256.5 150 L 251.5 150 L 248.5 148 L 236.5 147 L 230.5 144 L 214.5 142 L 211.5 140 L 205.5 140 L 193.5 136 L 187.5 136 Q 176.8 131.2 162.5 130 L 159.5 128 L 153.5 128 Q 151.2 125.3 145.5 126 L 142.5 124 L 135.5 124 L 123.5 120 L 109.5 118 L 93.5 112 L 80 104.5 L 79 102.5 L 83 99.5 L 82.5 98 L 86.5 99 L 91.5 96 Z M 302 141 Q 301 145 304 144 Q 305 140 302 141 Z M 300 205 L 296 207 L 294 206 L 290 208 L 292 209 L 300 209 L 301 210 L 302 207 L 300 205 Z M 280 210 L 280 211 L 283 212 L 288 212 L 280 210 Z M 297 244 L 298 246 Q 299 243 297 244 Z M 294 258 L 292 260 L 294 260 L 294 258 Z M 293 262 L 292 265 L 293 265 L 293 262 Z " /><path fill="rgb(230,169,121)" stroke="rgb(230,169,121)" stroke-width="1" opacity="0.9607843137254902" d="M 275.5 158 L 276.5 160 L 275.5 158 Z " /><path fill="rgb(230,169,121)" stroke="rgb(230,169,121)" stroke-width="1" opacity="0.9607843137254902" d="M 177.5 196 L 176 198.5 Q 168 205.5 166.5 219 L 166 214.5 L 168 207.5 L 177.5 196 Z " /><path fill="rgb(230,169,121)" stroke="rgb(230,169,121)" stroke-width="1" opacity="0.9607843137254902" d="M 270.5 273 L 273 274.5 Q 272.3 276.8 274.5 276 Q 275.9 272.8 281 274 L 281.5 276 L 284 274.5 L 276 301.5 L 276 303.5 L 271.5 312 L 271 310.5 L 272 308 L 263 305 L 263 297.5 L 266 287.5 L 266 282.5 L 270.5 273 Z " /><path fill="rgb(230,169,121)" stroke="rgb(230,169,121)" stroke-width="1" opacity="0.9607843137254902" d="M 63.5 275 L 65.5 278 L 63.5 275 Z " /><path fill="rgb(230,169,121)" stroke="rgb(230,169,121)" stroke-width="1" opacity="0.9607843137254902" d="M 252.5 280 L 252 281.5 L 252 285.5 L 247.5 295 L 247 291.5 L 248 289.5 L 246 286 L 250 283.5 L 252.5 280 Z " /><path fill="rgb(230,169,121)" stroke="rgb(230,169,121)" stroke-width="1" opacity="0.9607843137254902" d="M 269.5 314 L 265.5 319 L 269.5 314 Z " /><path fill="rgb(64,40,53)" stroke="rgb(64,40,53)" stroke-width="1" opacity="0.9882352941176471" d="M 186.5 66 L 190 66.5 L 186.5 67 L 186.5 66 Z " /><path fill="rgb(64,40,53)" stroke="rgb(64,40,53)" stroke-width="1" opacity="0.9882352941176471" d="M 218.5 72 L 218 73.5 L 214.5 78 L 216 75.5 L 218.5 72 Z " /><path fill="rgb(64,40,53)" stroke="rgb(64,40,53)" stroke-width="1" opacity="0.9882352941176471" d="M 96 103 L 103.5 103 L 104 104.5 L 103 107.5 L 105 110.5 L 102.5 111 L 93 106.5 L 94.5 104 L 96 104.5 L 96 103 Z " /><path fill="rgb(64,40,53)" stroke="rgb(64,40,53)" stroke-width="1" opacity="0.9882352941176471" d="M 151.5 106 L 154 106.5 L 150.5 108 L 151.5 106 Z " /><path fill="rgb(64,40,53)" stroke="rgb(64,40,53)" stroke-width="1" opacity="0.9882352941176471" d="M 149.5 109 L 150 110.5 L 146.5 115 L 146 111.5 L 149.5 109 Z " /><path fill="rgb(64,40,53)" stroke="rgb(64,40,53)" stroke-width="1" opacity="0.9882352941176471" d="M 112.5 110 L 113 112.5 L 112 112.5 L 112.5 110 Z " /><path fill="rgb(64,40,53)" stroke="rgb(64,40,53)" stroke-width="1" opacity="0.9882352941176471" d="M 142.5 114 L 145 115.5 L 144 120 L 133 117.5 L 142.5 114 Z " /><path fill="rgb(64,40,53)" stroke="rgb(64,40,53)" stroke-width="1" opacity="0.9882352941176471" d="M 281 130 Q 283.7 128.9 283 131.5 L 282 133.5 L 283 136.5 L 280 143.5 Q 281.4 154.9 278.5 162 Q 276.3 155.2 270.5 152 L 265 148.5 L 267 148 L 281 130 Z " /><path fill="rgb(64,40,53)" stroke="rgb(64,40,53)" stroke-width="1" opacity="0.9882352941176471" d="M 209.5 210 L 211.5 213 L 209.5 210 Z " /><path fill="rgb(64,40,53)" stroke="rgb(64,40,53)" stroke-width="1" opacity="0.9882352941176471" d="M 183.5 212 L 184 213.5 Q 180.3 216.3 181 223.5 L 184 232 L 192.5 237 L 200 238.5 L 191.5 239 L 183 235.5 L 182.5 233 L 180.5 233 L 176.5 234 L 175 232.5 L 175 223.5 L 183.5 212 Z " /><path fill="rgb(64,40,53)" stroke="rgb(64,40,53)" stroke-width="1" opacity="0.9882352941176471" d="M 213.5 216 Q 216.7 219.3 215 227.5 Q 212.3 228.6 213 232 L 211 231.5 Q 215 228 214 219.5 L 213.5 216 Z " /><path fill="rgb(64,40,53)" stroke="rgb(64,40,53)" stroke-width="1" opacity="0.9882352941176471" d="M 147.5 219 Q 150.5 219.5 150 223.5 L 148.5 226 L 145 225 L 147.5 219 Z " /><path fill="rgb(64,40,53)" stroke="rgb(64,40,53)" stroke-width="1" opacity="0.9882352941176471" d="M 143.5 228 L 145 232 L 148 232.5 L 148 242 L 145.5 241 Q 144.3 243.3 143 240.5 L 144 238.5 Q 141.5 237 143 231.5 L 143 229.5 L 143.5 228 Z " /><path fill="rgb(64,40,53)" stroke="rgb(64,40,53)" stroke-width="1" opacity="0.9882352941176471" d="M 165.5 231 L 167 235.5 L 166 235.5 L 165.5 231 Z " /><path fill="rgb(64,40,53)" stroke="rgb(64,40,53)" stroke-width="1" opacity="0.9882352941176471" d="M 168.5 238 L 176.5 247 L 194.5 253 L 207.5 255 L 210.5 257 L 216.5 257 L 227.5 261 L 231.5 261 L 235.5 263 L 239.5 263 L 270 271.5 L 261.5 276 L 255 282.5 Q 255.8 284.8 253.5 284 L 254 282.5 L 255 273 Q 251.2 274 250 271.5 Q 252.2 270.3 249.5 269 L 246 270 L 245.5 272 L 238.5 272 L 235.5 273 L 215.5 272 L 205.5 267 L 197.5 267 L 188.5 265 L 187 263.5 Q 187.9 260.5 183.5 262 L 179 260 L 179 258 Q 174.9 259.3 176 256 L 169.5 256 L 169 254.5 Q 165.4 252.6 166 248 Q 162.7 249.3 164 244.5 L 164.5 242 L 167 243 L 168.5 247 L 171.5 248 L 171 246.5 Q 172.5 241.3 168 243 L 168.5 238 Z M 183 252 L 181 254 L 184 254 L 183 252 Z " /><path fill="rgb(64,40,53)" stroke="rgb(64,40,53)" stroke-width="1" opacity="0.9882352941176471" d="M 157.5 244 L 162 245.5 L 160 246 Q 161.2 249.7 156 248 L 157.5 244 Z " /><path fill="rgb(64,40,53)" stroke="rgb(64,40,53)" stroke-width="1" opacity="0.9882352941176471" d="M 57.5 266 Q 63.8 264.3 65.5 267 L 67.5 267 L 72.5 267 L 83.5 271 L 89.5 271 L 91.5 273 L 98.5 273 L 106.5 276 L 112.5 276 L 116.5 278 L 128.5 280 L 131.5 282 Q 143.2 281.8 150.5 286 L 156.5 286 L 159.5 288 L 164.5 288 L 167.5 290 L 186.5 293 L 193.5 296 L 199.5 296 L 204.5 299 Q 210.2 298.3 212.5 301 L 215.5 300 Q 220.2 303.8 230.5 302 L 233.5 301 L 231.5 304 Q 228.9 303.3 230 306 L 237.5 306 L 247 298.5 L 247.5 297 L 248 300.5 L 244 304.5 Q 244.8 309.3 241.5 310 L 230.5 312 L 228.5 311 L 222 312.5 Q 227.3 312.3 229.5 315 L 235.5 315 L 236.5 314 L 248.5 314 L 256 319.5 Q 255.3 321.8 257.5 321 L 257.5 322 L 240.5 323 L 215.5 316 L 211.5 316 L 207.5 314 L 203.5 314 L 199.5 312 L 189.5 311 L 181.5 308 L 142.5 300 L 135.5 297 L 133.5 297 L 126.5 296 L 122.5 294 L 117.5 294 L 98.5 288 L 93.5 288 L 79.5 283 L 77.5 283 L 70 279.5 L 72.5 279 L 84.5 282 L 84.5 281 Q 81.9 281.7 83 279 L 80.5 279 L 72 275 Q 73.3 271.7 68.5 273 L 58.5 268 L 57.5 266 Z " /><path fill="rgb(98,79,129)" stroke="rgb(98,79,129)" stroke-width="1" opacity="0.996078431372549" d="M 236.5 79 L 240 79.5 L 236.5 80 L 236.5 79 Z " /><path fill="rgb(98,79,129)" stroke="rgb(98,79,129)" stroke-width="1" opacity="0.996078431372549" d="M 150.5 84 L 149.5 86 L 150.5 84 Z " /><path fill="rgb(98,79,129)" stroke="rgb(98,79,129)" stroke-width="1" opacity="0.996078431372549" d="M 146.5 85 L 148 85.5 L 139 91.5 Q 139.8 94.1 136.5 93 L 128.5 96 L 125 94.5 L 125.5 92 L 128 93 L 128.5 91 Q 129.5 94 134.5 93 L 137 92 Q 135.3 87.5 140.5 89 L 146.5 85 Z " /><path fill="rgb(98,79,129)" stroke="rgb(98,79,129)" stroke-width="1" opacity="0.996078431372549" d="M 125.5 98 L 126 99.5 L 123 101 Q 121.9 98.3 124.5 99 L 125.5 98 Z " /><path fill="rgb(98,79,129)" stroke="rgb(98,79,129)" stroke-width="1" opacity="0.996078431372549" d="M 104.5 107 L 105.5 109 L 104.5 107 Z " /><path fill="rgb(98,79,129)" stroke="rgb(98,79,129)" stroke-width="1" opacity="0.996078431372549" d="M 114 110 L 116 110.5 L 114 111.5 L 114 110 Z " /><path fill="rgb(98,79,129)" stroke="rgb(98,79,129)" stroke-width="1" opacity="0.996078431372549" d="M 91 133 L 93 133.5 L 93 147.5 L 94 150 L 91 151.5 Q 92 155.3 89 154 L 91 133 Z " /><path fill="rgb(98,79,129)" stroke="rgb(98,79,129)" stroke-width="1" opacity="0.996078431372549" d="M 256.5 141 L 255.5 143 L 256.5 141 Z " /><path fill="rgb(98,79,129)" stroke="rgb(98,79,129)" stroke-width="1" opacity="0.996078431372549" d="M 269.5 143 L 265.5 148 L 263 147.5 Q 268.1 147.1 269.5 143 Z " /><path fill="rgb(98,79,129)" stroke="rgb(98,79,129)" stroke-width="1" opacity="0.996078431372549" d="M 84.5 177 L 85 178.5 L 83 179.5 L 84.5 177 Z " /><path fill="rgb(98,79,129)" stroke="rgb(98,79,129)" stroke-width="1" opacity="0.996078431372549" d="M 82 185 Q 84.7 183.9 84 186.5 L 82 187.5 L 82 185 Z " /><path fill="rgb(98,79,129)" stroke="rgb(98,79,129)" stroke-width="1" opacity="0.996078431372549" d="M 171.5 195 Q 174.3 196.3 172 197.5 Q 171.7 202.7 168 204.5 L 169 205.5 L 166 208.5 L 165 211.5 L 166 213.5 L 165 214.5 L 165 233.5 L 166 236 L 168 236.5 L 165.5 237 L 161.5 229 Q 159.3 229.8 160 227.5 L 158 220.5 L 158 214.5 L 155.5 211 L 152.5 211 L 144 218 L 144 222 L 140 224 L 140 230.5 L 137 232 L 136 239.5 L 138 250 Q 140.7 248.9 140 251.5 L 144 253 L 144 256 L 146 256 Q 144.9 258.7 147.5 258 L 159.5 263 L 161.5 262 Q 163.2 264.8 168.5 264 L 170.5 266 L 177.5 266 L 179.5 268 L 192.5 272 L 196.5 272 L 199.5 274 L 201.5 274 L 210.5 274 L 211 275.5 L 212 275.5 Q 211.3 273.3 213.5 274 L 219.5 276 L 221.5 276 L 235.5 275 L 245.5 272 L 249.5 269 L 250.5 271 L 248.5 270 L 245 276 L 242 277.5 L 239.5 283 L 236 283 L 236 287.5 Q 233 286.5 234 291.5 L 233 292.5 L 233 299 L 239.5 296 L 238.5 298 L 234.5 301 L 220.5 301 L 197.5 294 L 191.5 294 L 180.5 290 L 174.5 290 L 172.5 288 L 153.5 285 L 151.5 283 L 149.5 283 Q 144.9 283.6 143.5 281 L 138.5 281 L 136.5 279 L 126.5 279 L 116.5 275 Q 109.8 276.2 107.5 273 L 100.5 273 L 92.5 270 L 83.5 270 L 71.5 265 L 58.5 265 Q 55.5 266.5 58.5 268 L 68 272.5 L 66.5 272 L 61.5 270 L 60 270.5 Q 60.8 268.3 58.5 269 L 56 268 L 57 265.5 L 52.5 263 L 51.5 264 L 48 260.5 L 49.5 260 L 52 260.5 L 51.5 262 Q 57.6 261.4 60.5 264 L 65 260.5 Q 64.4 255.9 67 254.5 L 67 246 Q 69.7 247.1 69 244.5 L 70 241.5 L 69 238.5 L 71 236.5 L 72 226.5 Q 75.5 226 75 221.5 L 74 218.5 Q 76.5 217 75 211.5 L 76.5 210 Q 79.9 209.1 78 214.5 L 80 218.5 L 78 221.5 L 79 223.5 L 78 225.5 L 79 230 L 74 231 Q 75.3 236.1 72 237.5 L 72 248 Q 75.3 246.7 74 251.5 Q 76.5 253 75 258.5 L 76.5 260 L 78 260 L 78 264 L 80.5 264 L 85.5 266 L 86.5 265 L 98 265 L 99.5 268 Q 103.3 268.8 104 266.5 L 105.5 264 L 112 265 Q 110.5 268.8 113.5 268 L 115.5 268 L 120 267 L 120 264 L 116 263.5 L 116 248 L 119 248 L 119 240 L 121 240 L 121 236 L 123 236 Q 121.8 230.7 125 231.5 L 125 228.5 L 126 226 L 130 225 Q 129 221.2 131.5 220 L 134 218.5 L 135.5 216 L 139 213.5 L 141.5 210 L 144.5 208 L 147 207 Q 145.9 204.3 148.5 205 Q 149.8 202 154 203 L 155.5 200 Q 161 201.5 162.5 199 Q 164 201.5 165.5 198 Q 168.8 196.9 168 199.5 L 169 199.5 Q 168.5 195.5 171.5 195 Z M 120 268 L 120 271 L 127 271 L 128 272 L 128 268 L 120 268 Z " /><path fill="rgb(98,79,129)" stroke="rgb(98,79,129)" stroke-width="1" opacity="0.996078431372549" d="M 205.5 236 L 207 236.5 L 203.5 238 L 203.5 237 L 205.5 236 Z " /></svg>